<?xml version="1.0" encoding="UTF-8" standalone="no"?>
<!-- Created with Inkscape (http://www.inkscape.org/) -->

<svg
   xmlns:dc="http://purl.org/dc/elements/1.1/"
   xmlns:cc="http://creativecommons.org/ns#"
   xmlns:rdf="http://www.w3.org/1999/02/22-rdf-syntax-ns#"
   xmlns:svg="http://www.w3.org/2000/svg"
   xmlns="http://www.w3.org/2000/svg"
   xmlns:sodipodi="http://sodipodi.sourceforge.net/DTD/sodipodi-0.dtd"
   xmlns:inkscape="http://www.inkscape.org/namespaces/inkscape"
   width="350mm"
   height="665mm"
   viewBox="0 0 1240.1575 2356.2992"
   id="svg2"
   version="1.1"
   inkscape:version="0.91 r13725"
   sodipodi:docname="slime-mold-enclosure-3mm-350x665.svg">
  <defs
     id="defs4" />
  <sodipodi:namedview
     id="base"
     pagecolor="#ffffff"
     bordercolor="#666666"
     borderopacity="1.0"
     inkscape:pageopacity="0.0"
     inkscape:pageshadow="2"
     inkscape:zoom="0.35"
     inkscape:cx="1143.769"
     inkscape:cy="1221.7899"
     inkscape:document-units="px"
     inkscape:current-layer="layer1"
     showgrid="false"
     inkscape:window-width="1858"
     inkscape:window-height="1177"
     inkscape:window-x="-8"
     inkscape:window-y="-8"
     inkscape:window-maximized="1" />
  <metadata
     id="metadata7">
    <rdf:RDF>
      <cc:Work
         rdf:about="">
        <dc:format>image/svg+xml</dc:format>
        <dc:type
           rdf:resource="http://purl.org/dc/dcmitype/StillImage" />
        <dc:title></dc:title>
      </cc:Work>
    </rdf:RDF>
  </metadata>
  <g
     inkscape:label="Layer 1"
     inkscape:groupmode="layer"
     id="layer1"
     transform="translate(0,1303.937)">
    <path
       style="opacity:1;fill:none;fill-opacity:1;stroke:#000000;stroke-width:0.35433072;stroke-miterlimit:4;stroke-dasharray:none;stroke-opacity:1"
       d="m 28.522607,-382.85565 0,30.11914 -10.628906,0 0,35.43164 10.628906,0 0,30.11914 60.236328,0 0,10.6289 70.867195,0 0,-10.6289 248.03125,0 0,10.6289 70.86523,0 0,-10.6289 248.03321,0 0,10.6289 70.86523,0 0,-10.6289 60.23633,0 0,-30.11719 10.62891,0 0,-35.43359 -10.62891,0 0,-30.11914 z"
       id="path4235"
       inkscape:connector-curvature="0" />
    <path
       style="opacity:1;fill:none;fill-opacity:1;stroke:#000000;stroke-width:0.35433072;stroke-miterlimit:4;stroke-dasharray:none;stroke-opacity:1"
       d="m 28.522607,-258.84003 0,30.11914 -10.628906,0 0,35.4336 10.628906,0 0,30.11718 60.236328,0 0,10.63086 70.867195,0 0,-10.63086 248.03125,0 0,10.63086 70.86523,0 0,-10.63086 248.03321,0 0,10.63086 70.86523,0 0,-10.63086 60.23633,0 0,-30.11718 10.62891,0 0,-35.4336 -10.62891,0 0,-30.11914 z"
       id="path4233"
       inkscape:connector-curvature="0" />
    <path
       style="opacity:1;fill:none;fill-opacity:1;stroke:#000000;stroke-width:0.35433072;stroke-miterlimit:4;stroke-dasharray:none;stroke-opacity:1"
       d="m 17.893701,-400.57082 1211.810499,0 0,-885.82808 -1211.810499,0 0,885.82808 z m 35.4336,-81.496 a 46.062992,46.062992 0 0 1 46.0625,-46.0626 46.062992,46.062992 0 0 1 46.062399,46.0626 46.062992,46.062992 0 0 1 -46.062399,46.0624 46.062992,46.062992 0 0 1 -46.0625,-46.0624 z"
       id="path4231"
       inkscape:connector-curvature="0" />
    <path
       style="opacity:1;fill:none;fill-opacity:1;stroke:#000000;stroke-width:0.35433072;stroke-miterlimit:4;stroke-dasharray:none;stroke-opacity:1"
       d="m 17.893701,-134.8244 0,70.867181 10.628906,0 0,70.8652402 -10.628906,0 0,70.8671898 10.628906,0 0,70.865229 -10.628906,0 0,265.74805 10.628906,0 0,70.86718 -10.628906,0 0,265.74808 10.628906,0 0,70.8652 -10.628906,0 0,70.8672 10.628906,0 0,70.8652 -10.628906,0 0,70.86725 70.865234,0 0,-10.6308 70.867195,0 0,10.6308 248.03125,0 0,-10.6308 70.86523,0 0,10.6308 248.03321,0 0,-10.6308 70.86523,0 0,10.6308 70.86524,0 0,-70.86725 -10.62891,0 0,-70.8652 10.62891,0 0,-70.8672 -10.62891,0 0,-70.8652 10.62891,0 0,-265.74808 -10.62891,0 0,-70.86718 10.62891,0 0,-265.74805 -10.62891,0 0,-70.865229 10.62891,0 0,-70.8671898 -10.62891,0 0,-70.8652402 10.62891,0 0,-70.867181 -70.86524,0 0,10.63086 -70.86523,0 0,-10.63086 -248.03321,0 0,10.63086 -70.86523,0 0,-10.63086 -248.03125,0 0,10.63086 -70.867195,0 0,-10.63086 z"
       id="path4229"
       inkscape:connector-curvature="0" />
    <path
       style="opacity:1;fill:none;fill-opacity:1;stroke:#000000;stroke-width:0.35433072;stroke-miterlimit:4;stroke-dasharray:none;stroke-opacity:1"
       d="m 886.00394,-134.82439 0,1169.29299 35.4336,0 0,-70.86725 10.63085,0 0,70.86725 30.11719,0 0,-9.9218 35.4336,0 0,9.9218 30.11722,0 0,-1169.29299 -30.11722,0 0,10.63086 -35.4336,0 0,-10.63086 -30.11719,0 0,68.847641 -10.63085,0 0,-68.847641 -35.4336,0 z m 35.4336,153.544941 10.63085,0 0,70.8652 -10.63085,0 0,-70.8652 z m 0,129.919899 10.63085,0 0,265.7481 -10.63085,0 0,-265.7481 z m 0,336.6152 10.63085,0 0,265.7481 -10.63085,0 0,-265.7481 z m 0,336.6133 10.63085,0 0,70.8672 -10.63085,0 0,-70.8672 z"
       id="path4227"
       inkscape:connector-curvature="0" />
    <path
       style="opacity:1;fill:none;fill-opacity:1;stroke:#000000;stroke-width:0.35433072;stroke-miterlimit:4;stroke-dasharray:none;stroke-opacity:1"
       d="m 1045.4532,-134.82439 0,1169.29299 35.4336,0 0,-70.86725 10.6289,0 0,70.86725 30.1191,0 0,-9.9218 35.4336,0 0,9.9218 30.1172,0 0,-1169.29299 -30.1172,0 0,10.63086 -35.4336,0 0,-10.63086 -30.1191,0 0,68.847641 -10.6289,0 0,-68.847641 -35.4336,0 z m 35.4336,153.544941 10.6289,0 0,70.8652 -10.6289,0 0,-70.8652 z m 0,129.919899 10.6289,0 0,265.7481 -10.6289,0 0,-265.7481 z m 0,336.6152 10.6289,0 0,265.7481 -10.6289,0 0,-265.7481 z m 0,336.6133 10.6289,0 0,70.8672 -10.6289,0 0,-70.8672 z"
       id="path4225"
       inkscape:connector-curvature="0" />
    <path
       style="opacity:1;fill:none;fill-opacity:1;stroke:#000000;stroke-width:0.35433072;stroke-miterlimit:4;stroke-dasharray:none;stroke-opacity:1"
       d="m 886.00394,-319.0734 0,14.17187 70.8653,0 0,-14.17187 z"
       id="path4181"
       inkscape:connector-curvature="0" />
    <path
       style="opacity:1;fill:none;fill-opacity:1;stroke:#000000;stroke-width:0.35433072;stroke-miterlimit:4;stroke-dasharray:none;stroke-opacity:1"
       d="m 886.00394,-350.96511 0,14.17382 70.8653,0 0,-14.17382 z"
       id="path4179"
       inkscape:connector-curvature="0" />
    <path
       style="opacity:1;fill:none;fill-opacity:1;stroke:#000000;stroke-width:0.35433072;stroke-miterlimit:4;stroke-dasharray:none;stroke-opacity:1"
       d="m 886.00394,-382.85489 0,14.17383 70.8653,0 0,-14.17383 z"
       id="path4173"
       inkscape:connector-curvature="0" />
    <path
       style="opacity:1;fill:none;fill-opacity:1;stroke:#000000;stroke-width:0.35433072;stroke-miterlimit:4;stroke-dasharray:none;stroke-opacity:1"
       d="m 974.58661,-382.85489 0,14.17383 70.86529,0 0,-14.17383 z"
       id="path4163"
       inkscape:connector-curvature="0" />
    <path
       style="opacity:1;fill:none;fill-opacity:1;stroke:#000000;stroke-width:0.35433072;stroke-miterlimit:4;stroke-dasharray:none;stroke-opacity:1"
       d="m 974.58661,-350.96316 0,14.17187 70.86529,0 0,-14.17187 z"
       id="path4159"
       inkscape:connector-curvature="0" />
    <path
       style="opacity:1;fill:none;fill-opacity:1;stroke:#000000;stroke-width:0.35433072;stroke-miterlimit:4;stroke-dasharray:none;stroke-opacity:1"
       d="m 974.58661,-319.07536 0,14.17383 70.86529,0 0,-14.17383 z"
       id="path4153"
       inkscape:connector-curvature="0" />
    <path
       style="opacity:1;fill:none;fill-opacity:1;stroke:#000000;stroke-width:0.35433072;stroke-miterlimit:4;stroke-dasharray:none;stroke-opacity:1"
       d="m 949.78346,-255.29438 0,14.1739 56.69144,0 0,56.6914 14.1739,0 0,-56.6914 0,-14.1739 -14.1739,0 -56.69144,0 z"
       id="path4163-99"
       inkscape:connector-curvature="0" />
    <path
       style="opacity:1;fill:none;fill-opacity:1;stroke:#000000;stroke-width:0.35433072;stroke-miterlimit:4;stroke-dasharray:none;stroke-opacity:1"
       d="m 988.759,-223.40472 -14.1739,0 0,56.6915 -56.6914,0 0,14.1739 56.6914,0 14.1739,0 0,-14.1739 0,-56.6915 z"
       id="path4163-3"
       inkscape:connector-curvature="0" />
    <path
       style="opacity:1;fill:none;fill-opacity:1;stroke:#000000;stroke-width:0.35433072;stroke-miterlimit:4;stroke-dasharray:none;stroke-opacity:1"
       d="m 956.86922,-184.42908 0,-14.1739 -56.69138,0 0,-56.6915 -14.1739,0 0,56.6915 0,14.1739 14.1739,0 56.69138,0 z"
       id="path4163-4"
       inkscape:connector-curvature="0" />
    <path
       style="opacity:1;fill:none;fill-opacity:1;stroke:#000000;stroke-width:0.35433072;stroke-miterlimit:4;stroke-dasharray:none;stroke-opacity:1"
       d="m 917.8937,-216.31885 14.17393,0 0,-56.6914 56.6914,0 0,-14.1739 -56.6914,0 -14.17393,0 0,14.1739 0,56.6914 z"
       id="path4163-9"
       inkscape:connector-curvature="0" />
  </g>
</svg>
