<?xml version="1.0" encoding="UTF-8" standalone="no"?>
<!-- Created with Inkscape (http://www.inkscape.org/) -->

<svg
   xmlns:dc="http://purl.org/dc/elements/1.1/"
   xmlns:cc="http://creativecommons.org/ns#"
   xmlns:rdf="http://www.w3.org/1999/02/22-rdf-syntax-ns#"
   xmlns:svg="http://www.w3.org/2000/svg"
   xmlns="http://www.w3.org/2000/svg"
   xmlns:sodipodi="http://sodipodi.sourceforge.net/DTD/sodipodi-0.dtd"
   xmlns:inkscape="http://www.inkscape.org/namespaces/inkscape"
   width="220mm"
   height="315mm"
   viewBox="0 0 779.52754 1116.1417"
   id="svg2"
   version="1.1"
   inkscape:version="0.91 r13725"
   sodipodi:docname="slime-mold-example-plate-3mm-220x315.svg">
  <defs
     id="defs4" />
  <sodipodi:namedview
     id="base"
     pagecolor="#ffffff"
     bordercolor="#666666"
     borderopacity="1.0"
     inkscape:pageopacity="0.0"
     inkscape:pageshadow="2"
     inkscape:zoom="0.7"
     inkscape:cx="399.40821"
     inkscape:cy="604.58838"
     inkscape:document-units="px"
     inkscape:current-layer="layer1"
     showgrid="false"
     inkscape:window-width="1858"
     inkscape:window-height="1177"
     inkscape:window-x="-8"
     inkscape:window-y="-8"
     inkscape:window-maximized="1" />
  <metadata
     id="metadata7">
    <rdf:RDF>
      <cc:Work
         rdf:about="">
        <dc:format>image/svg+xml</dc:format>
        <dc:type
           rdf:resource="http://purl.org/dc/dcmitype/StillImage" />
        <dc:title></dc:title>
      </cc:Work>
    </rdf:RDF>
  </metadata>
  <g
     inkscape:label="Layer 1"
     inkscape:groupmode="layer"
     id="layer1"
     transform="translate(0,63.77948)">
    <path
       style="opacity:1;fill:none;fill-opacity:1;stroke:#000000;stroke-width:0.35433072;stroke-miterlimit:4;stroke-dasharray:none;stroke-opacity:1"
       d="m 651.01102,-42.689649 c 1.29,-0.0911 2.6971,0.6106 3.9004,1.2344 2.7816,1.8564 -0.7852,4.8991 -2.42,6.2285 -2.6525,2.9743 -4.7541,-1.9982 -5.1601,-4.25 0.4316,-0.7286 0.9446,-1.4138 1.5527,-2.0059 0.6203,-0.8115 1.353,-1.1524 2.127,-1.207 z m -17.6367,8.4277 c 1.8766,1.2944 6.4228,-0.3626 6.25,3.002 -0.4794,2.6707 -3.6166,3.1125 -5.8692,2.7285 -2.8362,-0.514 -5.6591,0.1616 -8.1133,1.5605 -0.8155,0.4958 -2.4571,1.4836 -3.125,1.6192 -0.9855,0.4624 -1.9744,0.9213 -2.9257,1.457 -1.8296,1.5353 -4.2744,0.5397 -6.3868,1.0039 -1.8733,1.3106 -4.2125,1.0762 -6.3925,1.0313 -2.1818,0.3503 -4.9973,0.1844 -5.7305,-2.3575 -1.0512,-2.695 1.4186,-5.2077 3.6094,-6.3593 2.7843,-0.79 5.8852,0.4294 8.4238,-1.3887 3.2308,-0.1816 6.4676,-0.0671 9.7012,-0.082 2.8874,0.6527 5.2362,-1.9208 8.0683,-1.4297 0.7773,-0.3846 1.5973,-0.807 2.4903,-0.7852 z m -62.9336,11.5176 c 1.496,-0.019 4.2574,0.5426 4.9922,1.1308 0.1468,0.0885 0.2995,0.161 0.4414,0.2618 2.8953,1.5726 -0.7233,2.9167 -2.4414,2.3007 -2.9105,0.1931 -5.7211,1.429 -8.5958,2.0528 -3.1186,0.8524 -6.1012,1.999 -9.1601,3.1367 -3.3703,0.23 -6.7508,0.0599 -10.125,0.1035 -3.3178,-0.4807 -5.6784,2.6991 -8.9004,2.7051 l -7.8711,0 c -1.3465,-0.1134 -1.0329,-2.9518 -2.6641,-3.6738 -1.7832,-1.5379 -1.4517,-4.6314 0.9551,-5.2891 2.2978,-1.5743 5.5643,-1.8912 7.8145,-0.0273 l 7.7871,0 c 1.9533,0.1027 3.9191,-8e-4 5.6308,-1.0957 2.9358,-0.1008 5.8735,-0.0935 8.8106,-0.0801 3.3304,-0.1278 6.8479,0.5524 9.9492,-1.0098 1.0721,-0.2723 2.2242,-0.4694 3.377,-0.5156 z m 117.8515,0.7676 c 1.2503,0.006 2.5426,0.4729 3.7871,0.7089 2.3356,-0.6553 4.2299,1.4591 6.3653,0.8672 1.9425,-1.617 3.4471,0.0327 5.2715,0.3086 0.6675,0.1837 2.3331,0.896 2.7402,0.9375 0.3024,-0.1394 0.3493,0.1187 0.2773,0.2168 1.2265,0.6106 2.3763,1.3728 3.3692,2.291 2.4047,2.194 1.5719,5.537 0.1465,8.0020002 0.09,2.6106 1.6822,5.0866 2.3886,7.65229998 0.6788,2.92780002 1.8923,5.75210002 2.9219,8.59380002 1.4567,1.6016 4.3868,4.7480998 5.9492,5.6522998 0.3838,-0.1771 0.3618,0.2922 0.1992,0.252 0.06,0.0429 0.1187,0.0907 0.1797,0.1328 1.9172,1.4413 4.247,1.314 6.1992,2.4336 0.9418,0.6216 2.8217,1.0806 2.961,1.332 1.232,0.291 2.4601,0.5416 3.2851,1.4746 1.0428,-0.1777 3.6659,-1.4594 5.5645,-1.2304 1.8184,-2.098 3.72,1.0523 1.9004,2.5722 -0.2787,2.5283 -2.3109,4.6974 -1.8828,7.2422 1.0532,2.8163 4.4892,3.5311 7.1484,3.9942 2.4448,0.708 4.7148,1.1846 7.0488,2.2968 2.1109,-0.1404 3.4061,-2.698 5.6309,-3.2519 2.5066,-1.172 -0.4782,-4.5133 1.8281,-5.9863 0.2236,-0.5152 0.362,-1.0439 0.459,-1.5801 l 0,537.951099 0,320.961 0,152.62115 -744.095701,0 0,-473.58215 0.061,0 c -0.02,-0.0777 -0.041,-0.1547 -0.061,-0.2324 0.5307,-0.1053 1.0765,-0.1617 1.6543,-0.1093 1.8188,-0.4523 3.4964,-1.4249 5.4277,-1.6973 1.627,-1.5328 4.1168,-0.3428 5.834,-1.5488 2.6568,-0.7956 5.4221,-1.2593 8.0664,-2.1875 2.5118,0.2952 5.4334,-0.6494 7.625,0.9765 1.1755,-0.5621 3.5888,-1.2842 5.4864,-0.9453 2.8303,-0.8138 5.626,-1.9795 8.496,-2.8457 2.2746,-1.029 4.7614,-1.4516 6.7833,-3.0078 2.5139,-1.6749 5.3051,-2.9491 7.6582,-4.8379 0.989,-2.2545 2.8231,1.0828 3.7304,-0.8887 2.3806,-1.3427 4.8589,-3.194 7.4942,-4.4355 2.7345,-1.3497 5.1577,-3.1516 7.8496,-4.5567 1.7781,-0.8964 3.4843,-2.0306 5.375,-2.707 1.415001,-1.4857 3.592401,-1.9654 4.767601,-3.6074 1.852,-2.2767 4.9243,-2.3683 7.2539,-3.8418 1.6664,-0.5202 2.7669,-1.8737 4.0546,-2.9707 1.7798,-1.3694 3.8937,-2.4467 5.5625,-3.8555 2.0068,-0.4709 2.9947,-2.6667 5.0332,-3.0254 1.9642,-1.6817 4.3757,-2.6976 6.2168,-4.5175 1.7841,-2.2853 4.8545,-2.7173 7.0293,-4.4727 1.6894,-1.5688 4.0231,-2.1831 5.5098,-4.0195 1.4899,-1.5885 3.8036,-1.8934 5.1816,-3.6954 1.8008,-0.7871 3.3627,-2.0873 5.0313,-3.0996 2.039,-1.4331 4.5344,-1.5517 6.6094,-2.8535 2.8364,-1.1976 5.3603,-2.9569 8.3554,-3.6093 2.6045,-0.7572 5.3744,-0.6673 7.834,-1.9473 2.6535,-0.4241 4.7604,-2.5358 7.4824,-2.8027 2.2829,-1.0337 4.4672,-2.3872 7.0079,-2.7793 2.1341,-1.1367 4.4378,-2.2656 6.8691,-2.7286 2.1463,-1.1791 4.395,-2.272 6.8105,-2.7968 2.1597,-1.248 4.7154,-1.6818 6.75,-3.2305 2.4497,-0.9699 5.2354,-0.251 7.8125,-0.5137 2.9641,0.6563 5.0927,2.7523 7.5645,4.1797 1.4202,1.4563 2.3377,1.2624 2.8477,1.9336 0.4929,0.5637 1.2779,0.6327 2.0234,0.7969 1.9569,-0.1237 3.8597,0.0676 5.584,1.1133 2.073,-0.2489 4.1864,0.3205 5.4687,2.039 2.381,0.7004 3.6397,3.333 6.086,3.5215 2.5725,-0.6228 4.9841,0.1876 7.2304,0.832 0.5228,-1.6912 -1.081,-3.9059 -0.4785,-5.9785 0.3968,-2.8005 -0.4525,-5.4024 -1.9472,-7.5293 -2.447,-0.4193 -5.2546,0.6598 -7.5,-0.7949 -1.6727,-1.8382 -3.6494,-3.4062 -5.2696,-5.3008 -1.6376,-1.6428 -2.3018,-3.8849 -0.4023,-5.6582 -1.5851,-0.797 -4.2856,1.7771 -6.2168,2.334 -1.886,1.5597 -4.701,3.719 -7.0918,1.7188 -3.2868,-0.4488 -6.2259,-2.0652 -8.7403,-4.1934 -2.6722,-1.1449 -3.4317,-4.458 -5.2714,-6.709 -1.3082,-2.8433 -4.8458,-3.0893 -6.5782,-5.5566 -1.3571,-1.943 -5.0961,-3.5092 -2.7187,-6.211 -0.3438,-2.7105 2.8479,-3.2321 4.3242,-4.8965 2.4755,-1.2348 4.3762,-3.0741 7.0078,-4.0234 1.5843,-2.1754 4.4911,-3.0141 6.541,-4.7851 3.5044,-0.2235 7.034,-0.1398 10.5352,-0.0567 2.0586,-0.8725 4.1689,-1.2316 6.2988,-1.5723 1.9884,-1.9494 1.7009,-5.024 2.8653,-7.4375 1.1257,-2.4709 1.8452,-5.0714 2.7988,-7.6074 1.4093,-1.8971 -0.7376,-1.1549 -1.916,-1.9492 -1.9836,-1.4223 -2.5273,-4.1371 -2.959,-6.4141 -0.487,-2.6907 2.0261,-4.3399 3.209,-6.4746 2.4389,-1.7814 6.1616,-1.64 8.7832,-3.541 2.0559,-0.1779 4.1222,-0.1532 6.1836,-0.1328 1.947,0.1466 4.2536,0.3508 4.5293,-2.168 0.9546,-2.7571 5.1601,-5.13 3.6113,-8.2597 -1.0393,-2.2203 -1.0778,-5.2991 1.2519,-6.7012 1.9317,-1.4205 3.0495,-4.037 5.6368,-4.3711 2.3973,0.0786 4.256,-1.2505 6.5937,-1.5254 2.3051,-1.5096 5.2121,-1.1454 7.6758,-2.2305 3.4523,-1.9115 3.7765,3.3558 5.1953,4.6094 2.301,-1.2544 3.7278,-4.3495 2.377,-6.791 -0.5948,-1.683 -1.9723,-3.1383 -2.7735,-4.748 -0.047,-0.0319 -0.1011,-0.0911 -0.1601,-0.2227 0.022,-0.0107 0.036,-0.008 0.055,-0.0137 -0.3739,-0.8202 -0.5972,-1.68 -0.4629,-2.6386 -0.4249,-1.636 2.2979,-2.7903 1.4179,-4.5723 2.28,-4.2037 3.7149,-5.2076 6.1914,-8.1211 1.6137,-1.6721 0.9166,-4.6279 2.4454,-5.9492 1.5251,0.5637 3.0591,1.2543 4.5273,2.0625 1.5941,0.5615 -0.2311,0.0586 3.2734,2.1367 2.8799,1.5926 5.278,3.9184 7.6621,6.1953 1.505,1.0785 3.6759,6.0153 5.0489,2.4668 -1.1921,-1.4141 -3.0668,-2.966 -4.5801,-4.4785 -1.816,-1.9883 -4.4158,-2.8496 -6.3301,-4.7149 -2.4191,-1.2317 -4.3557,-3.157 -6.7461,-4.4374 -3.5258,-1.5551 -2.018,-5.3505 0.3946,-7.1407 0.836,-2.0754 2.5979,-3.4913 4.1289,-5.0918 2.0702,-2.3354 4.8094,-4.1988 6.0878,-7.125 2.2121,-2.4312 4.5703,-4.7241 6.8575,-7.084 1.9837,-1.6432 3.1136,-3.927 4.8886,-5.7089 2.3737,-1.5422 3.6727,-4.0968 5.2813,-6.3301 2.1717,-2.1826 4.319,-4.4848 6.0273,-7.0547 0.4221,-2.2936 2.7801,-2.997 3.3731,-5.1133 0.8027,-2.1753 1.8502,-4.2169 3.5957,-5.8125 0.9738,-2.613 3.2743,-4.4732 4.293,-7.0781 0.6249,-2.3998 2.34,-4.2153 3.1386,-6.5117 0.9543,-2.4178 2.5986,-4.4277 3.3789,-6.9356 1.489,-1.6915 1.6185,-3.2632 1.9668,-5.3789 0.3675,-1.2214 1.7025,-3.3155 2.0957,-4.1816 0.4721,-0.8116 0.9528,-1.6162 1.4024,-2.4473 0.2742,-2.0889 1.7092,-3.4177 1.6992,-5.5762 0.9074,-2.643 1.6418,-5.4359 2.9726,-7.9882 0.7714,-1.4465 1.3405,-2.4227 1.4961,-4.252 0.082,-0.0373 0.4277,-1.3967 0.4747,-1.3867 0.1625,-0.6187 0.3252,-1.2381 0.5039,-1.8496 -0.3098,-2.6416 0.7521,-3.8708 1.4589,-6.5625 0,-1.3335 0.1901,-2.0914 0.3731,-3.9492 1.2022,-2.37 1.447,-5.2199 3.2519,-7.3262 0.3887,-2.5586 0.012,-5.564 1.6856,-7.8477 0.3094,-2.6112 -0.3748,-5.3719 1.1348,-7.6855 0.4671,-3.6513 -0.5669,-7.678 1.5351,-10.9903 0.1681,-2.829 0.021,-5.6645 -0.049,-8.4941 0.1163,-2.7247 -0.415,-5.4676 0.1504,-8.1602 0.7091,-2.1787 1.298,-4.3422 1.332,-6.6464 0.6133,-1.6572 1.332,-3.3753 1.9941,-5.6817 0.01,-0.229 0.3522,-1.1074 0.5899,-2.2304 0.3289,-1.7797 1.1347,-3.3241 1.5527,-5.2051 1.2901,-1.6229 0.8268,-4.0747 2.0567,-5.7422 0.2566,-2.3024 2.0108,-4.1295 1.8574,-6.4492 -0.8419,-2.8534 1.973,-4.7845 1.4902,-7.5977 1.3439,-2.8296 1.0645,-5.9199 1.4219,-8.9902 1.6253,-2.0401 1.2328,-4.6892 1.2598,-7.1192 0.2553,-2.2898 -0.7927,-5.2136 1.2988,-6.8769 2.0225,-1.1166 3.5732,-5.813799 6.1504,-4.0527 1.5613,-0.1371 4.7129,-1.426699 5.3183,1.4082 0.8155,3.0066 -0.8655,6.6852 0.9961,9.2382 1.153,2.4363 3.6152,3.6746 5.9688,4.7891 2.0008,0.2721 3.8082,3.5917 5.3808,1.8809 2.2375,-0.5703 4.1668,-1.7948 6.3418,-2.5332 2.4846,-0.7052 2.565,-3.6592 4.6993,-4.918 1.5123,-2.074 3.8487,-2.8515 6.1171,-3.8086 2.3479,-0.0634 4.1774,-1.6728 6.2754,-2.5195 3.1293,-2.0093 5.3479,-5.135199 8.2246,-7.472699 2.1245,-1.4927 4.3759,-2.8711 6.1622,-4.8008 2.3403,-2.0386 4.0561,-4.9876 7.1308,-6.0058 2.5119,-2.2513 4.8249,-4.7077 7.2578,-7.0411 1.3116,-1.7005 3.492,-2.1255 4.9805,-3.6308 1.88,-1.5263 4.4161,-1.9501 6.3223,-3.4649 2.4379,-0.9451 4.7509,-2.2586 7.1054,-3.4257 1.8134,-1.236 2.4779,-3.5892 3.043,-5.6055 1.0795,-2.2279 1.4192,-5.0378 2.5664,-7.2754 1.3655,-2.6181 1.1464,-5.3841 2.043,-8.1426 0.097,-0.2627 0.6916,-2.6057 0.8808,-2.1582 1.1446,-1.8116 1.2251,-2.4179 1.8438,-4.4629 0.6264,-2.6493 3.1568,-3.8483 5.1855,-5.2207 1.8531,-1.4172 3.4626,-3.1252 4.2442,-5.3261 1.4639,-1.0782 2.7521,-4.7293 4.5195,-2.0293 1.8427,-1.1967 2.4069,-4.3359 4.5234,-5.752 2.346,-2.2898 4.4033,-5.1173 7.4922,-6.4355 1.9117,-1.198 4.4048,-0.9887 5.9668,-2.8067 2.9123,-1.7414 6.0733,-2.9801 9.0196,-4.6659998 2.1588,-0.8443 4.1921,-1.9563 6.1992,-3.1172 3.2218,-1.1738 5.9815,-3.2719 9.1484,-4.5332 2.1764,-1.28600002 4.5467,-2.385 6.8164,-3.5039 0.3642,-0.2672 0.6229,-0.7515 0.8809,-0.5566 2.0419,-1.0689 4.4124,-0.9816 6.5547,-2.1035 2.9481,0.6186 5.4091,-1.3144 8.2285,-1.4747 2.3863,2.4446 5.2042,0.4601 7.9355,-0.082 2.5696,-0.3243 5.0612,-1.8092 7.7617,-1.2988 2.3092,0.1537 4.3548,1.5788 6.7442,1.3281 2.6851,-0.3456 5.3044,-1.3923 7.7851,-2.4922 2.9193,-0.2928 5.7231,2.6319 8.5567,0.5489 3.3127,-2.3943002 5.6256,1.5418 8.4023,2.7011 3.3249,1.7906 6.1459,-1.6808 9.1563,-2.6797 0.5946,-0.5397 1.2397,-0.9078 1.9121,-1.1816 0.038,-0.0162 0.095,-0.0857 0.1152,-0.0488 2.2681,-0.8810002 4.8608,-0.6759002 7.1016,-1.8399002 3.4373,-0.4061 6.9495,-0.1392 10.3515,-0.7051 2.673,-1.5031 5.6794,-0.4367 8.4375,-1.3125 2.5096,-1.3971 5.1025,-2.2408 7.7461,-3.1718 2.9314,-0.9315 5.8358,-1.7413 8.6582,-2.8946 2.6549,-0.7802 5.2294,-2.053 8.1172,-1.7519 0.6989,-0.4784 1.4334,-0.6407 2.1836,-0.6367 z m -176.6758,4.4843 c 2.5292,-0.002 4.7478,1.6267 6.0352,3.8125 -0.086,0.4103 -0.027,1.2664 -0.6484,1.2813 -1.6693,-1.8995 -2.6578,-0.1233 -4.1153,0.9492 -1.9431,1.2802 -4.3977,-0.4361 -6.2929,1.1543 -1.7848,0.7004002 -3.5087,1.7510002 -3.9239,3.7871002 -1.7962,1.127 -5.0423,1.0871 -7.3359,2.0723 -1.6876,0.1798 -3.678,0.136 -5.3457,0.6894 0.01,0.1164 -0.076,0.2292 -0.2051,0.0625 -1.1123,0.4103 -2.065,1.109 -2.6465,2.3848 -1.9444,2.3411 -5.194,2.7416 -7.875,3.7637 -2.958,-0.6827 -5.1935,1.2608 -7.9472,1.4746 -3.6447,-1.0739 -4.8641,2.9951 -7.8711,3.7812 -2.3956,0.4688 -6.1318,0.0148 -7.1817,-2.4355 0.873,-1.8187 1.7841,-3.8428 3.4317,-5.15630002 0.8505,-1.0673 2.9605,-1.97969998 3.7968,-3.07999998 0.1714,-0.079 0.2581,-0.0253 0.2911,0.0507 0.9879,-0.6232 1.9121,-1.3224 2.5566,-2.3613 2.1681,-1.6579 5.0764,-1.0176 7.3105,-2.3789 2.3001,-0.1222 4.1027,-1.7543 6.4883,-1.4629 0.9424,-0.0327 2.4178,-0.8035 2.6094,-0.5488 1.1055,-0.4443002 2.1855,-0.9894002 3.4609,-0.9824002 2.5685,-1.0407 5.1622,-2.1805 7.9219,-2.5469 2.9304,-0.1025 5.345,-1.8854 8.2402,-2.4746 2.8714,-0.1011 5.1819,-2.0098 8.1446,-1.7324 0.3721,-0.0699 0.7402,-0.1032 1.1015,-0.1036 z m -66.9023,34.3789 c 1.4312,-0.0521 2.7561,1.8721 3.6973,2.9063 -0.01,2.138 -3.2802,0.887 -5.9825,3.3848 -2.036,1.1006 -4.0287,2.2528 -6.2304,3 -3.1163,0.2851 -1.9423,3.5738 -2.7227,5.5918 -2.6963,2.7358 -5.4061,5.4575 -8.1113,8.1816 -2.281,2.4064 -5.7699,1.4164 -8.6543,2.0625 -2.2589,2.0075 -4.1269,-2.1098 -3.8848,-4.1289 0.747,-0.4843 1.9487,-1.8833 2.1992,-1.6602 1.1453,-0.8287 2.3593,-1.6433 3.5782,-2.3046 1.4087,-1.1414 3.0201,-1.986 4.4922,-3.0215 0.01,-0.008 0.021,-0.0352 0.031,-0.0235 0.8183,-0.5779 1.5939,-1.2133 2.2637,-1.9961 0.7617,-0.7058 2.5658,-1.7791 3.1836,-2.0351 0.7693,-0.4393 1.4961,-0.9442 2.0488,-1.711 1.3698,-1.5438 3.5613,-1.9048 4.8457,-3.5918 2.005,-2.138 4.8466,-3.6256 7.791,-3.8359 0.4909,-0.5624 0.978,-0.801 1.4551,-0.8184 z m -31.375,30.7383 c 0.4126,0.0389 0.84,0.1985 1.2812,0.5157 2.1108,1.7375 3.3041,4.3541 4.5547,6.7324 0.9598,2.0526 3.055,3.5496 2.4473,6.1113 -0.2738,2.3346 0.4681,4.8046 -0.4219,7.0391 -1.7036,2.1565 0.3021,5.3471 -1.7265,7.4707 -0.6599,0.6832 -1.7227,2.7014 -1.7227,2.2734 -0.7949,1.1618 -1.1604,1.8453 -2.1523,2.8828 -0.5617,0.5154 -1.4298,1.7353 -1.6856,2.0879 -0.4813,0.9339 -0.9047,1.9095 -1.748,2.5703 -2.5389,1.007 -5.1979,1.7222 -6.7129,4.2422 -2.4766,1.6363 -3.4358,4.8609 -5.9434,6.168 -2.3163,0.0604 -5.526,3.0425 -6.9609,-0.086 0.2097,-2.837 -1.9223,-5.1318 -1.7363,-8.0058 1.0927,-2.4872 1.7349,-5.1302 1.7109,-7.8887 1.2651,-2.416 1.2841,-5.2695 3.0742,-7.4512 2.12,-1.8192 2.4946,-4.657 4.0938,-6.8359 1.631,-1.3615 1.9279,-3.4769 3.4082,-4.9336 1.3421,-1.438 1.7372,-3.4686 3.3476,-4.7324 0.7721,-1.6558 1.797,-3.2441 2.5488,-4.9375 0.9773,-1.2012 2.3283,-3.074 3.9356,-3.2227 0.1339,-0.0124 0.2707,-0.013 0.4082,0 z m 76.7012,26.67 c -1.5743,0.0418 -3.4138,2.3688 -5.1094,2.5742 -2.2527,1.0114 -4.3691,2.2488 -6.6211,3.2871 -2.7934,0.8449 -4.4924,3.3169 -6.5703,5.1894 -2.4557,2.9218 -6.1001,4.4266 -8.6875,7.1934 -2.4608,2.0798 -4.213,5.2258 -7.3848,6.3008 -2.4788,2.213999 -4.7807,4.612199 -7.164,6.925799 -1.2259,2.1189 -5.0771,1.9839 -5.0371,4.8203 2.6982,5.2379 5.2796,10.5236 7.916,15.7929 0.01,4.2823 0,8.5654 0,12.8477 0.3696,2.1453 -0.3677,4.1379 -1.2754,6.043 0.1935,0.624 0.5844,1.1549 0.9004,1.7187 0.092,2.6742 3.5241,2.3415 4.7285,4.7422 1.4199,2.5884 5.46,3.5986 7.1953,0.7656 2.6057,-2.3017 5.5996,0.1441 8.2539,0.3281 2.6734,-0.5962 4.0841,1.7165 4.8672,3.8497 0.9774,2.2042 2.8025,4.209 2.4433,6.7578 -1.1021,3.3562 2.6116,3.4006 4.6583,4.6386 2.4803,1.3565 5.2271,2.6048 7.2636,4.5684 1.4906,2.6228 3.4638,4.972 4.4707,7.8047 1.2253,1.7993 2.6292,3.3912 3.5,5.4101 0.6251,1.9249 2.3397,3.2882 3.0625,5.1465 1.0317,1.9013 2.5048,3.8054 2.7657,5.9688 -1.6575,2.6737 -4.9182,4.5339 -5.4122,7.9394 1.5825,1.0519 2.1147,-3.5 3.6641,-4.1386 2.6793,-0.7781 6.1679,-0.446 7.4844,-3.586 1.8695,-2.2792 2.6008,-5.1354 4.7246,-7.1621 2.5481,-1.8684 5.6276,-2.1352 8.416,-3.4844 1.6481,-1.3865 6.2956,-2.7466 3.5664,-5.3066 -2.5097,-2.1155 -4.4994,-4.7028 -5.6308,-7.8027 -0.08,-6.8664 -1e-4,-13.737 -0.039,-20.6016 -0.3276,-2.8216 1.4996,-5.3514 3.0976,-7.4746 1.4411,-2.206 2.3267,-4.8442 4.3125,-6.7637 1.2877,-2.8037 3.2027,-5.507 6.125,-6.832 2.793,-1.3957 -1.9999,-0.6848 -2.9238,-1.1172 -1.5212,-1.9912 -4.507,-3.6375 -6.7168,-1.4258 -2.2406,0.6025 -4.1966,1.9234 -6.2754,2.8985 -1.5834,1.6769 -4.0255,1.8147 -5.7871,0.3476 -2.3374,-0.9949 -4.818,-1.6599 -7.1894,-2.625 -1.1635,-1.2862 -2.6525,-0.9196 -3.5801,-1.3633 -0.9481,0.1016 -1.9175,0.4373 -2.8496,0.8789 -3.2561,0.9075 -6.3164,-1.1227 -8.041,-3.7695 -1.6515,-1.6535 -5.6919,-4.1229 -2.834,-6.5586 1.4303,-2.0359 4.0305,-2.9859 5.1699,-5.1933 0.6914,-2.3561 -1.4205,-4.3239 -0.8789,-6.7969 0.1291,-0.8633 0.7912,-3.2053 0.9727,-3.4024 0.3985,-1.1739 0.7111,-2.3683 0.4804,-3.685499 -0.04,-2.8712 -2.0236,-5.2422 -1.3886,-8.2207 0.6519,-3.2359 -1.0208,-6.0419 -1.5547,-9.0996 0.5492,-2.4679 2.8167,-5.0201 0.3808,-7.4453 -0.451,-0.657 -0.9439,-0.8969 -1.4687,-0.8828 z m -103.5157,20.8339 c 0.762,0.0567 1.4848,2.486 2.8575,2.3868 3.7034,-0.2334 1.5719,3.624499 -0.6407,4.331999 -2.8193,2.2769 -6.121,-2.920399 -3.3476,-4.865299 0.4269,-1.4144 0.7845,-1.8792 1.1308,-1.8535 z m 88.4981,73.390699 c -2.1229,0.144 -3.884,4.2362 -4.3027,4.6738 -0.018,0.0559 -0.04,0.1123 -0.057,0.168 -1.2992,2.1312 -2.0636,5.1179 -4.7148,5.9589 -1.805,0.8706 -3.2615,2.4598 -5.0996,3.3555 -1.9451,1.9138 -4.7463,2.9208 -7.3965,1.9727 -2.8435,-0.7412 -3.4172,-4.5482 -6.3321,-4.9395 -2.0257,0.3669 -4.0223,0.6936 -5.8242,1.4102 -0.7383,2.5964 -3.1093,4.5538 -3.1543,7.2929 0.6615,4.0265 3.5107,7.2055 5.5762,10.5918 0.8198,2.3322 2.2264,4.8669 1.418,7.4004 -0.804,2.5504 2.0372,5.0409 1.5351,7.7754 -1.7894,2.3816 -1.5392,5.3061 -3.1758,7.6738 -0.3116,1.8216 -0.6214,2.4165 1.375,2.5997 1.875,1.2908 4.5698,3.8881 2.9376,6.2792 -1.663,1.0637 -1.0939,4.5346 -3.1797,4.4239 -2.289,-1.1423 -3.3658,2.5187 -5.17,3.5625 -1.6205,1.6193 -3.1439,3.385 -5.2246,4.414 -2.8151,1.7613 -0.8214,4.649 1.9571,4.3536 2.6123,-0.1158 -0.9826,3.4545 1.9922,2.7304 2.6077,-0.8458 4.6056,1.1481 7.0937,1.2598 3.1188,-0.5474 5.587,1.802 8.6758,1.2031 0.061,-2.2432 -0.9624,-4.8277 -0.7871,-7.3164 -1.1628,-2.2851 -0.108,-4.4373 1.4785,-6.2637 2.8419,-0.7768 3.7559,-3.5787 5.5234,-5.6113 3.2102,-0.9054 5.9911,-2.8026 8.959,-4.248 2.3605,-0.2915 3.9741,-1.9152 5.8789,-3.127 2.8585,-1.0147 -0.488,3.093 1.9121,2.4297 2.7871,-0.1516 4.848,-2.083 6.8946,-3.6719 1.9865,0.1903 3.1073,-4.5941 0.7148,-2.9531 -2.17,-0.5402 1.3951,-3.4396 2.5566,-4.1816 2.5968,-0.6194 3.8963,-3.3512 6.3868,-4.2168 2.0596,-1.2527 3.3217,-3.172 4.1875,-5.3731 -1.1501,-1.1418 -1.8913,-3.7369 -0.5567,-5.6113 0.9772,-2.5989 4.4587,-3.5496 4.7363,-6.4688 -1.2611,-1.7489 -1.7718,-3.9286 -3.1347,-5.625 -2.0504,-2.1215 -2.6358,-5.1154 -4.4102,-7.4257 -2.1343,-2.3295 -2.4825,-5.7724 -4.9004,-7.8946 -1.7974,-2.4054 -4.6375,-3.6069 -7.1523,-5.0644 -1.8675,-1.1081 -3.8699,-1.7163 -6.0625,-1.4141 -0.4132,-0.0947 -0.7979,-0.1343 -1.1543,-0.123 z m 60.834,17.5273 c -1.0466,-0.0166 -2.0794,0.0601 -3.0528,0.5098 -3.4729,1.8211 0.7876,5.2495 3.3555,4.0566 2.4538,0.1711 4.4424,2.0275 7.0781,1.5664 2.6031,1.3655 6.273,1.9748 8.7989,-0.0371 l 4.1855,0 0,-6.0488 -17.2226,0 c -1.0358,0.0801 -2.0961,-0.0303 -3.1426,-0.0469 z m 11.623,45.5195 c -0.074,-0.003 -0.1676,0.0296 -0.2832,0.125 -0.4114,0.3072 -0.5758,0.6296 -0.8301,0.8047 -1.8049,0.5611 -2.2957,2.0002 -4.2109,2.4844 -0.6292,0.7318 -1.6321,0.8987 -2.5449,0.9609 -2.6174,0.8189 -4.9059,2.7032 -7.6387,3.5625 -2.609,1.1351 -6.1226,3.4468 -5.8574,5.4629 0.4948,0.6507 0.6033,0.3618 1.1992,0.8242 1.037,-0.3547 2.3839,-2.1685 3.3262,-2.496 2.1243,-0.3028 3.9401,-1.795 5.918,-2.6387 2.3435,-1.4143 5.1262,-2.1673 7.1113,-4.1094 1.2533,-1.5517 3.8184,-2.6329 4.082,-4.6328 0,0 -0.05,-0.3387 -0.2715,-0.3477 z m -26.5918,13.791 c -1.1072,-0.0157 -2.2226,0.215 -3.0332,0.6114 -2.7835,1.4745 -3.3832,4.819 -2.6328,7.6406 -0.035,1.3989 -0.2413,2.8057 -0.1523,4.2031 1.2603,-0.6564 1.4986,-4.1813 3.1894,-5.3925 2.2794,-1.4241 6.0146,-1.1094 6.6524,-4.5626 -0.3547,-1.763 -2.1782,-2.4737 -4.0235,-2.5 z m -57.0879,8.1778 c -0.6971,-0.0111 -1.3919,0.0529 -2.0625,0.1992 -1.025,0.3798 -1.7714,1.2073 -2.5918,1.8887 -3.2888,1.0648 0.3517,3.2206 2.3496,3.1738 3.1261,0.6537 6.1209,-1.5103 9.3575,-0.6484 1.4729,0.9404 3.9871,0.7876 4.914,2.3847 1.8512,0.8544 2.5286,-2.6103 0.1035,-2.6328 -2.0063,-1.0239 -4.1223,-1.6832 -6.248,-2.3965 -0.9687,-0.7232 -2.5469,-1.2217 -3.4199,-1.5957 0.022,-0.01 0.034,-0.008 0.053,-0.0136 -0.8026,-0.2153 -1.6284,-0.3463 -2.4551,-0.3594 z m 18.1036,9.5683 c -2.7547,0.8539 -1.9806,2.2157 -0.6758,3.7715 l 1.3847,0.7989 c 1.9916,0.3758 3.6153,0.073 5.584,-0.0508 -0.9299,-2.3572 -3.9047,-3.9037 -6.2929,-4.5196 z m -182.1407,109.4278 c -0.2826,-0.0228 -0.5705,-0.0194 -0.8633,0.0176 -3.2243,1.2033 -1.0069,4.4225 1.4395,4.8906 1.7172,0.9456 3.5802,1.699 4.9219,3.2461 1.5788,0.2317 2.5178,1.9999 4.2031,1.8691 2.1608,1.4593 4.5869,2.4407 6.9062,3.6016 2.378,0.8126 3.8498,2.8842 5.6036,4.541 1.9399,1.4543 4.132,2.5686 5.7246,4.4805 2.4103,1.8638 4.0255,4.7107 6.8574,6.0078 2.9494,0.1117 5.901,0.0415 8.8516,0.0547 1.5118,-0.004 0.9111,-0.4985 1.6367,-0.9395 l -0.1719,-2.416 c -0.1359,-1.9118 -3.5127,-1.7614 -4.8125,-3.0781 -1.8752,-0.5634 -3.7882,2.5525 -6.0605,2.8613 -2.278,-0.9794 -3.586,-3.4335 -6.0508,-4.2031 -1.9136,-1.5826 0.043,-3.0128 1.4472,-2.9278 0.8365,-0.8116 -2.6971,-0.5561 -3.2656,-1.4257 -2.4292,-0.7599 -3.5291,-3.2545 -4.4629,-5.4102 -0.8177,-1.9111 -3.2019,-2.12 -4.5234,-3.584 -1.5404,-1.2096 -3.4617,-1.8758 -4.9004,-3.2793 -2.0857,-1.3099 -4.5407,-1.5787 -6.6992,-2.748 -2.042,0.0331 -3.8032,-1.3985 -5.7813,-1.5586 z m -16.8867,8.0176 c -0.9287,-0.002 -1.8354,0.1025 -2.6641,0.6015 -2.3547,1.558 -5.3623,0.0584 -7.7949,1.2754 -1.8444,2.4104 -3.1874,3.9547 -4.4414,6.209 -1.1962,2.7772 -4.0459,4.524 -0.5742,4.6934 2.4278,-0.3183 4.8059,-0.1811 7.2168,0.0859 2.6354,0.0988 4.8811,1.5673 7.6309,1.4199 2.6008,0.9702 5.0861,3.0424 5.1171,6.1113 l 2.9122,3.8555 c 0.7826,1.4418 2.3198,2.0607 3.7285,2.7559 2.3245,1.3876 4.903,1.8274 7.289,2.6699 2.5781,-0.9232 4.8519,-2.5325 7.4004,-3.5684 2.6111,-1.75 -2.0151,-1.947 -3.0801,-2.2168 -1.8761,-1.1467 -4.2899,-0.7538 -6.1015,-2.082 -3.7039,0.2074 -4.4344,-3.796 -6.4805,-5.9453 -1.893,-1.253 -2.4488,-3.628 -2.3808,-5.7617 0.01,-2.1277 0.3658,-4.4721 -1.3125,-6.1211 -1.3069,-1.1616 -1.5647,-4.256 -3.6719,-3.9473 -0.9144,0.0754 -1.8643,-0.0331 -2.793,-0.0351 z m 59.6309,24.2734 c -1.8019,0.9492 -0.1622,4.542 -2.4551,5.3906 -0.1587,0.2093 -0.3222,0.3083 -0.5449,0.4297 -2.2254,1.7163 -4.7088,2.4428 -7.3653,3.3008 -2.3068,0.3129 -4.7096,0.5821 -7.0097,0.4316 -2.2886,-1.4185 -4.3136,-3.1158 -6.8711,-4.0879 -1.5811,-0.212 -4.0099,-3.3116 -4.9864,-1.8925 1.1501,2.4842 2.0829,5.1925 3.7833,7.416 -0.2899,2.0286 1.5575,3.9546 3.8066,3.0937 2.2137,-2.5366 4.793,1.4638 7.2754,-0.7578 2.4871,-1.8697 5.5915,-1.9035 8.2402,-3.3144 2.064,-0.6816 4.7158,-0.8472 6.0449,-2.8047 1.5876,-1.5887 0.6937,-4.2922 2.4473,-5.6836 -0.7417,-0.5655 -1.415,-1.3145 -2.3652,-1.5215 z m -82.5371,0.0215 -0.6016,0 c -2.3952,2.8568 -6.2042,3.6984 -9.2715,5.5801 -3.2309,1.2652 -3.0066,4.6377 -4.2012,7.2265 -0.2078,2.9826 -1.7348,5.488 -2.7441,8.2012 -0.2752,2.8112 3.1198,2.4293 4.9805,2.3613 2.486,-0.6316 5.0664,-1.1009 7.625,-1.6679 1.9339,-1.5587 4.6193,-0.7619 6.9062,-0.9219 2.6314,-1.2209 4.8393,2.5118 7.0196,0.3301 1.6014,-1.9181 3.5095,-3.8775 4.4492,-6.1641 -2.2557,0.1689 -4.273,-1.5553 -3.7129,-4.1152 1.1222,-2.918 -2.1857,-3.1143 -3.6699,-4.9004 -2.3141,-1.9014 -4.0181,-4.6272 -6.7793,-5.9297 z m 49.8496,5.4277 c -1.8052,-0.0692 -4.023,1.0328 -4.4903,2.584 1.8082,1.5354 4.385,2.3134 6.5703,3.3965 0.6291,1.1084 4.0406,2.0096 2.8887,-0.125 -1.2384,-1.7271 -2.5715,-3.3917 -3.3808,-5.3692 -0.4298,-0.3104 -0.9861,-0.4632 -1.5879,-0.4863 z m -8,6.875 -0.043,0 -0.5195,0.1035 c -2.2983,1.0458 -4.1397,2.798 -6.4063,3.8985 -2.5157,0.8692 -4.5992,3.0681 -7.4551,2.6113 -2.0578,-0.2598 -4.7388,0.7258 -6.2578,-1.1465 -0.1983,-3.2492 -4.9044,-3.8655 -5.4746,-0.4355 -1.7356,1.966 -3.6012,3.8124 -5.4336,5.6875 -3.2179,1.8638 1.2683,3.6762 1.9199,5.9726 2.7082,2.9393 -0.8263,5.0541 -3.1718,6.3496 -0.4851,0.6429 1.6152,0.1471 2.2363,0.3028 1.5778,0.1352 3.0976,-0.0174 4.416,-1.0079 2.9769,-0.7261 2.7787,4.3688 5.6426,4.8321 2.6654,0.5695 5.7073,-0.5982 8.0019,1.3828 2.3811,0.3946 3.7365,2.5911 5.2188,4.1621 2.4436,-0.1769 2.3461,2.2202 3.6641,3.6602 0.4862,2.0926 1.8695,3.8145 2.6464,5.7949 1.2562,1.6179 0.9941,4.1178 3.3262,4.4668 1.7094,0.9703 3.4306,3.4377 5.5469,1.7676 2.3129,-1.114 4.6598,-3.0335 7.3594,-1.5899 0.3268,0.1806 0.5972,0.2775 0.8418,0.3379 0.2859,-0.6965 0.6545,-0.313 0.6425,0.0391 1.533,-0.3842 0.5062,-4.4401 0.8145,-6.0157 0.5998,-2.5089 2.7595,0.0749 2.0644,1.625 -1.005,1.9364 3.277,5.132 3.1465,2.1094 -1.0625,-2.1272 1.823,-4.6229 2.2168,-1.3808 0.3287,1.1895 0.8571,1.3003 1.291,0.9238 -0.9204,-1.2058 1.5167,-0.4842 0.4727,-2.8594 -0.5711,-2.7378 -3.2878,-4.6614 -6.0645,-4.0254 -3.4708,0.9289 -2.9618,-3.4441 -0.7128,-4.6094 1.8295,-0.085 1.0869,-1.3233 -0.027,-2.0625 -1.1179,1.589 -2.839,-0.6365 -4.207,0.8379 -1.951,0.22 -0.9708,1.1869 -0.4317,2.2266 -0.7147,0.5317 -1.5504,0.4968 -2.3261,0.1348 -0.035,0.0912 -0.1383,0.1136 -0.2676,-0.1426 -1.2262,-0.7053 -2.2387,-2.1977 -2.2617,-3.5117 -1.0401,-3.5682 -5.7027,-1.8081 -8.4434,-2.2246 -2.3538,0.4238 -4.4854,-0.3371 -6.3203,-1.7657 -2.7547,-2.1716 -5.2336,-4.7528 -7.8047,-7.164 -1.2873,-1.8144 -4.2549,-2.9187 -4.1641,-5.3867 2.1309,-1.6376 4.4049,-3.5691 6.627,-5.2813 2.1783,0.1937 3.392,-1.3901 5.4531,-1.2383 2.8478,-0.9798 4.4244,1.6024 7.1914,1.0606 2.4185,-0.2896 5.3513,0.8197 7.2989,-1.0801 -0.5686,-1.7845 -4.0774,1.412 -5.7442,-0.1074 -1.6507,-2.1796 -3.8934,-4.4573 -4.5019,-7.252 z m -16.7578,43.207 c -0.4334,0.076 -0.6938,0.6946 -1.1856,0.7559 -2.3896,0.8176 -6.3219,0.1662 -7.1016,3.2891 -0.2162,3.0887 -1.6042,5.5679 -2.0019,8.6425 -0.3546,3.163 -3.0625,3.1553 -5.5703,3.5743 -2.5813,1.42 -5.517,0.7563 -8.1738,1.4921 -0.9003,2.0866 -0.295,4.7697 -0.295,7.084 1.2156,0.8575 0.3921,5.3771 2.4512,2.75 2.4334,-0.5965 4.947,1.6066 7.1406,-0.5449 2.2367,-1.1709 4.399,-2.3064 6.5157,-3.6504 1.7705,-1.6702 4.8026,-1.9854 5.5703,-4.6133 0.3551,-2.2084 -0.7769,-6.3624 2.6289,-6.5351 2.6283,-0.1099 6.8017,-0.3383 7.6035,2.8496 1.3091,2.3877 2.1797,6.0617 5.7109,5.6367 2.9196,-0.343 5.0312,1.8863 7.0352,3.6211 1.4638,-0.1812 3.5422,0.025 5,0.1914 1.014,-0.7699 -1.3538,-4.0035 1.2168,-4.7402 2.6425,-1.5523 6.4641,0.5697 8.6582,-1.916 0.4389,-2.0102 -2.3543,-6.1109 -4.3047,-3.4922 -2.8425,0.6307 -5.5875,2.4003 -8.4102,0.4746 -2.8341,-0.199 -5.2895,-1.4399 -7.8047,-2.7637 -2.9126,-0.7357 -4.1147,-4.1997 -7.1191,-4.748 l -7.3652,-7.3536 c -0.07,-0.0145 -0.1372,-0.0147 -0.1992,-0.004 z"
       id="path4223"
       inkscape:connector-curvature="0" />
  </g>
</svg>
