<?xml version="1.0" encoding="UTF-8" standalone="no"?>
<!-- Created with Inkscape (http://www.inkscape.org/) -->

<svg
   xmlns:dc="http://purl.org/dc/elements/1.1/"
   xmlns:cc="http://creativecommons.org/ns#"
   xmlns:rdf="http://www.w3.org/1999/02/22-rdf-syntax-ns#"
   xmlns:svg="http://www.w3.org/2000/svg"
   xmlns="http://www.w3.org/2000/svg"
   xmlns:sodipodi="http://sodipodi.sourceforge.net/DTD/sodipodi-0.dtd"
   xmlns:inkscape="http://www.inkscape.org/namespaces/inkscape"
   width="770mm"
   height="555mm"
   viewBox="0 0 2728.3468 1966.5354"
   id="svg2"
   version="1.1"
   inkscape:version="0.91 r13725"
   sodipodi:docname="slime-mold-enclosure-V3-3mm-MDF-770x555.svg">
  <defs
     id="defs4" />
  <sodipodi:namedview
     id="base"
     pagecolor="#ffffff"
     bordercolor="#666666"
     borderopacity="1.0"
     inkscape:pageopacity="0.0"
     inkscape:pageshadow="2"
     inkscape:zoom="0.36083028"
     inkscape:cx="1327.1452"
     inkscape:cy="1014.6505"
     inkscape:document-units="px"
     inkscape:current-layer="layer1"
     showgrid="false"
     inkscape:window-width="1858"
     inkscape:window-height="1177"
     inkscape:window-x="-8"
     inkscape:window-y="-8"
     inkscape:window-maximized="1"
     showguides="true"
     inkscape:guide-bbox="true" />
  <metadata
     id="metadata7">
    <rdf:RDF>
      <cc:Work
         rdf:about="">
        <dc:format>image/svg+xml</dc:format>
        <dc:type
           rdf:resource="http://purl.org/dc/dcmitype/StillImage" />
        <dc:title></dc:title>
      </cc:Work>
    </rdf:RDF>
  </metadata>
  <g
     inkscape:label="Layer 1"
     inkscape:groupmode="layer"
     id="layer1"
     transform="translate(0,914.17306)">
    <path
       style="fill:none;stroke:#0000ff;stroke-width:0.7086615;stroke-miterlimit:4;stroke-dasharray:none;stroke-opacity:1"
       d="m 1276.797,-113.74073 a 24.803106,24.803106 0 0 0 -24.8034,24.803504 24.803106,24.803106 0 0 0 24.8034,24.803412 24.803106,24.803106 0 0 0 24.8017,-24.803412 24.803106,24.803106 0 0 0 -24.8017,-24.803504 z m 0,10.6293 a 14.173228,14.173228 0 0 1 14.1724,14.174204 14.173228,14.173228 0 0 1 -14.1724,14.172313 14.173228,14.173228 0 0 1 -14.1741,-14.172313 14.173228,14.173228 0 0 1 14.1741,-14.174204 z"
       id="path4553-2"
       inkscape:connector-curvature="0" />
    <path
       style="fill:none;stroke:#0000ff;stroke-width:0.7086615;stroke-miterlimit:4;stroke-dasharray:none;stroke-opacity:1"
       d="m 1209.0475,-113.74073 a 24.803104,24.803104 0 0 0 -24.8035,24.803404 24.803104,24.803104 0 0 0 24.8035,24.803512 24.803104,24.803104 0 0 0 24.8035,-24.803512 24.803104,24.803104 0 0 0 -24.8035,-24.803404 z m 0,10.6292 a 14.173228,14.173228 0 0 1 14.1742,14.174204 14.173228,14.173228 0 0 1 -14.1742,14.172413 14.173228,14.173228 0 0 1 -14.1724,-14.172413 14.173228,14.173228 0 0 1 14.1724,-14.174204 z"
       id="path4553-4-0"
       inkscape:connector-curvature="0" />
    <path
       style="fill:none;stroke:#0000ff;stroke-width:0.7086615;stroke-miterlimit:4;stroke-dasharray:none;stroke-opacity:1"
       d="m 1141.2997,-113.74073 a 24.803106,24.803106 0 0 0 -24.8034,24.803504 24.803106,24.803106 0 0 0 24.8034,24.803512 24.803106,24.803106 0 0 0 24.8017,-24.803512 24.803106,24.803106 0 0 0 -24.8017,-24.803504 z m 0,10.6293 a 14.173228,14.173228 0 0 1 14.1724,14.174204 14.173228,14.173228 0 0 1 -14.1724,14.172413 14.173228,14.173228 0 0 1 -14.1741,-14.172413 14.173228,14.173228 0 0 1 14.1741,-14.174204 z"
       id="path4553-2-7"
       inkscape:connector-curvature="0" />
    <path
       style="fill:none;stroke:#0000ff;stroke-width:0.7086615;stroke-miterlimit:4;stroke-dasharray:none;stroke-opacity:1"
       d="m 1344.5455,-113.74073 a 24.803106,24.803106 0 0 0 -24.8034,24.803504 24.803106,24.803106 0 0 0 24.8034,24.803412 24.803106,24.803106 0 0 0 24.8017,-24.803412 24.803106,24.803106 0 0 0 -24.8017,-24.803504 z m 0,10.6293 a 14.173228,14.173228 0 0 1 14.1724,14.174204 14.173228,14.173228 0 0 1 -14.1724,14.172313 14.173228,14.173228 0 0 1 -14.1741,-14.172313 14.173228,14.173228 0 0 1 14.1741,-14.174204 z"
       id="path4553-2-2"
       inkscape:connector-curvature="0" />
    <path
       style="fill:none;stroke:#0000ff;stroke-width:0.7086615;stroke-miterlimit:4;stroke-dasharray:none;stroke-opacity:1"
       d="m 42.519304,28.346965 0,106.298795 -10.628906,0 0,70.86329 10.628906,0 0,165.27343 -10.628906,0 0,71.11719 10.628906,0 0,165.01953 -10.628906,0 0,71.11719 10.628906,0 0,165.27344 -10.628906,0 0,70.86328 10.628906,0 0,106.29879 95.669926,0 0,-10.6289 70.86524,0 0,10.6289 212.59961,0 0,-10.6289 70.86523,0 0,10.6289 212.59961,0 0,-10.6289 70.86523,0 0,10.6289 95.66993,0 0,-106.29879 10.6289,0 0,-70.86328 -10.6289,0 0,-165.27344 10.6289,0 0,-71.11719 -10.6289,0 0,-165.01953 10.6289,0 0,-71.11719 -10.6289,0 0,-165.27343 10.6289,0 0,-70.86329 -10.6289,0 0,-106.298795 -95.66993,0 0,10.6289 -70.86523,0 0,-10.6289 -212.59961,0 0,10.6289 -70.86523,0 0,-10.6289 -212.59961,0 0,10.6289 -70.86524,0 0,-10.6289 -95.669926,0 z m 95.669926,24.8027 70.86524,0 0,10.6289 -70.86524,0 0,-10.6289 z m 283.46485,0 70.86523,0 0,10.6289 -70.86523,0 0,-10.6289 z m 283.46484,0 70.86523,0 0,10.6289 -70.86523,0 0,-10.6289 z m -620.080085,28.3457 744.095705,0 0,885.828135 -744.095705,0 0,-885.828135 z m -28.345703,53.150395 10.628906,0 0,70.86524 -10.628906,0 0,-70.86524 z m 790.158208,0 10.62891,0 0,70.86524 -10.62891,0 0,-70.86524 z m -790.158208,236.22071 10.628906,0 0,70.86523 -10.628906,0 0,-70.86523 z m 790.158208,0 10.62891,0 0,70.86523 -10.62891,0 0,-70.86523 z m -790.158208,236.2207 10.628906,0 0,70.86524 -10.628906,0 0,-70.86524 z m 790.158208,0 10.62891,0 0,70.86524 -10.62891,0 0,-70.86524 z m -790.158208,236.2207 10.628906,0 0,70.86524 -10.628906,0 0,-70.86524 z m 790.158208,0 10.62891,0 0,70.86524 -10.62891,0 0,-70.86524 z m -708.66211,141.73047 70.86524,0 0,10.63088 -70.86524,0 0,-10.63088 z m 283.46485,0 70.86523,0 0,10.63088 -70.86523,0 0,-10.63088 z m 283.46484,0 70.86523,0 0,10.63088 -70.86523,0 0,-10.63088 z"
       id="rect4671"
       inkscape:connector-curvature="0" />
    <path
       style="fill:none;stroke:#0000ff;stroke-width:0.7086615;stroke-miterlimit:4;stroke-dasharray:none;stroke-opacity:1"
       d="m 1098.7797,-765.70945 10.6309,-1e-4 0,42.5194 74.4103,0 -10e-5,10.6309 70.8653,0 0,-10.6308 165.3554,0 10e-5,10.6308 70.8652,-10e-5 0,-10.6307 165.3555,1e-4 -1e-4,10.6308 70.8653,-10e-5 0,-10.6308 165.3555,0 0,10.6308 70.8652,2e-4 0,-10.631 74.4083,-10e-5 -10e-5,-42.5194 10.6309,-10e-5 0,-35.4335 -10.6309,2e-4 0,-53.14869 -928.3458,10e-5 0,53.14829 -10.6309,0 z m 28.3476,24.8027 10e-5,-95.66809 892.9123,0 -10e-5,95.66799 z"
       id="rect4671-9-6"
       inkscape:connector-curvature="0"
       sodipodi:nodetypes="cccccccccccccccccccccccccccccccccc" />
    <path
       inkscape:connector-curvature="0"
       style="fill:none;stroke:#0000ff;stroke-width:0.7086615;stroke-miterlimit:4;stroke-dasharray:none;stroke-opacity:1"
       d="m 1134.2129,-365.31507 0,53.1504 10.6309,0 0,35.4317 -10.6309,0 0,42.5215 106.3004,0 0,10.6289 70.8653,0 0,-10.6289 212.5996,0 0,10.6289 70.8652,0 0,-10.6289 212.5996,0 0,10.6289 70.8652,0 0,-10.6289 106.2997,-5e-4 0,-42.5215 -10.6309,0 0,-35.4317 10.6309,0 0,-53.1504 z m 28.3477,17.7168 793.6996,-5e-4 0,95.67 -793.6996,5e-4 z"
       id="rect4671-35-6"
       sodipodi:nodetypes="cccccccccccccccccccccccccccccc" />
    <path
       inkscape:connector-curvature="0"
       style="fill:none;stroke:#0000ff;stroke-width:0.7086615;stroke-miterlimit:4;stroke-dasharray:none;stroke-opacity:1"
       d="m 106.65357,945.70905 53.1504,0 0,-10.6308 35.4336,0 0,10.6308 42.5195,0 0,-85.0406 10.6289,0 0,-70.8653 -10.6289,0 0,-212.5997 10.6289,0 0,-70.8652 -10.6289,0 0,-212.5996 10.6289,0 0,-70.8652 -10.6289,0 0,-85.03969 -42.5195,0 0,10.6309 -35.4336,0 0,-10.6309 -53.1504,0 z m 17.7168,-28.3476 0,-751.17999 95.6699,0 0,751.17999 z"
       id="rect4671-35-5-6"
       sodipodi:nodetypes="cccccccccccccccccccccccccccccc" />
    <path
       style="opacity:1;fill:none;fill-opacity:1;stroke:#0000ff;stroke-width:0.7086615;stroke-miterlimit:4;stroke-dasharray:none;stroke-opacity:1"
       d="m 921.25984,14.173083 0,1020.472617 878.74026,0 0,-1020.472617 -878.74026,0 z m 244.48826,62.00779 a 14.173228,14.173228 0 0 1 14.1738,14.17188 14.173228,14.173228 0 0 1 -14.1738,14.173827 14.173228,14.173228 0 0 1 -14.1738,-14.173827 14.173228,14.173228 0 0 1 14.1738,-14.17188 z m 389.7637,0 a 14.173228,14.173228 0 0 1 14.1738,14.17188 14.173228,14.173228 0 0 1 -14.1738,14.173827 14.173228,14.173228 0 0 1 -14.1739,-14.173827 14.173228,14.173228 0 0 1 14.1739,-14.17188 z m -566.92966,58.464847 744.09566,0 0,779.52734 -744.09566,0 0,-779.52734 z m 177.16596,809.64453 a 14.173228,14.173228 0 0 1 14.1738,14.17383 14.173228,14.173228 0 0 1 -14.1738,14.17383 14.173228,14.173228 0 0 1 -14.1738,-14.17383 14.173228,14.173228 0 0 1 14.1738,-14.17383 z m 389.7637,0 a 14.173228,14.173228 0 0 1 14.1738,14.17383 14.173228,14.173228 0 0 1 -14.1738,14.17383 14.173228,14.173228 0 0 1 -14.1739,-14.17383 14.173228,14.173228 0 0 1 14.1739,-14.17383 z"
       id="rect4726"
       inkscape:connector-curvature="0" />
    <path
       style="opacity:1;fill:none;fill-opacity:1;stroke:#0000ff;stroke-width:0.7086615;stroke-miterlimit:4;stroke-dasharray:none;stroke-opacity:1"
       d="m 17.716535,-10.629869 1020.472765,0 0,-878.740311 -1020.472765,0 0,878.740311 z m 10.6289,-10.6289 0,-857.480511 999.212965,0 0,857.480511 -999.212965,0 z"
       id="rect4726-7-5"
       inkscape:connector-curvature="0" />
    <path
       style="opacity:1;fill:none;fill-opacity:1;stroke:#0000ff;stroke-width:0.7086615;stroke-miterlimit:4;stroke-dasharray:none;stroke-opacity:1"
       d="m 1062.9921,-10.629833 1020.4728,0 0,-878.740307 -1020.4728,0 0,878.740307 z m 10.6289,-10.6289 0,-857.480507 999.213,0 0,857.480507 -999.213,0 z"
       id="rect4726-7-5-0"
       inkscape:connector-curvature="0" />
    <path
       style="opacity:1;fill:none;fill-opacity:1;stroke:#0000ff;stroke-width:0.7086615;stroke-miterlimit:4;stroke-dasharray:none;stroke-opacity:1"
       d="m 1825.1577,13.818928 0,1020.472572 878.7403,0 0,-1020.472572 -878.7403,0 z m 244.4883,62.007798 a 14.173228,14.173228 0 0 1 14.1738,14.1718 14.173228,14.173228 0 0 1 -14.1738,14.173904 14.173228,14.173228 0 0 1 -14.1738,-14.173904 14.173228,14.173228 0 0 1 14.1738,-14.1718 z m 389.7637,0 a 14.173228,14.173228 0 0 1 14.1738,14.1718 14.173228,14.173228 0 0 1 -14.1738,14.173904 14.173228,14.173228 0 0 1 -14.1739,-14.173904 14.173228,14.173228 0 0 1 14.1739,-14.1718 z m -621.8496,38.976504 853.9375,0 0,818.5039 -853.9375,0 0,-818.5039 z m 232.0859,829.1329 a 14.173228,14.173228 0 0 1 14.1738,14.17378 14.173228,14.173228 0 0 1 -14.1738,14.1738 14.173228,14.173228 0 0 1 -14.1738,-14.1738 14.173228,14.173228 0 0 1 14.1738,-14.17378 z m 389.7637,0 a 14.173228,14.173228 0 0 1 14.1738,14.17378 14.173228,14.173228 0 0 1 -14.1738,14.1738 14.173228,14.173228 0 0 1 -14.1739,-14.1738 14.173228,14.173228 0 0 1 14.1739,-14.17378 z"
       id="rect4726-8"
       inkscape:connector-curvature="0" />
    <path
       inkscape:connector-curvature="0"
       style="fill:none;stroke:#0000ff;stroke-width:0.7086615;stroke-miterlimit:4;stroke-dasharray:none;stroke-opacity:1"
       d="m 266.10237,945.70905 53.1504,0 0,-10.6308 35.4336,0 0,10.6308 42.5196,0 0,-85.0407 10.6289,0 0,-70.8653 -10.6289,0 0,-212.5997 10.6289,0 0,-70.8652 -10.6289,0 0,-212.5996 10.6289,0 0,-70.8653 -10.6289,0 0,-85.03969 -42.5196,0 0,10.6309 -35.4336,0 0,-10.6309 -53.1504,0 z m 17.7168,-28.3476 0,-751.18019 95.6699,0 0,751.18019 z"
       id="rect4671-35-5-6-8-5"
       sodipodi:nodetypes="cccccccccccccccccccccccccccccc" />
    <path
       inkscape:connector-curvature="0"
       style="fill:none;stroke:#0000ff;stroke-width:0.7086615;stroke-miterlimit:4;stroke-dasharray:none;stroke-opacity:1"
       d="m 1134.2129,-524.76387 0,53.1504 10.6309,0 0,35.4317 -10.6309,0 0,42.5215 106.3004,0 0,10.6289 70.8653,0 0,-10.6289 212.5996,0 0,10.6289 70.8652,0 0,-10.6289 212.5996,0 0,10.6289 70.8652,0 0,-10.6289 106.2997,-5e-4 0,-42.5215 -10.6309,0 0,-35.4317 10.6309,0 0,-53.1504 z m 28.3477,17.7168 793.6996,-5e-4 0,95.67 -793.6996,5e-4 z"
       id="rect4671-35-6-0"
       sodipodi:nodetypes="cccccccccccccccccccccccccccccc" />
    <path
       inkscape:connector-curvature="0"
       style="fill:none;stroke:#0000ff;stroke-width:0.7086615;stroke-miterlimit:4;stroke-dasharray:none;stroke-opacity:1"
       d="m 915.60763,-143.01932 -8.1438,-6.83359 45.5528,-54.28766 -743.7262,-624.0608 -45.5525,54.28749 -8.1442,-6.83333 -22.7747,27.14211 8.1439,6.83344 -34.1645,40.7155 743.7259,624.061043 34.1645,-40.715903 8.1437,6.83377 z m -5.7716,-37.22319 -61.4952,73.2871 -716.5826,-601.28414 61.4958,-73.28771 z m -41.4948,-71.82133 -6.8319,8.14209 -54.2859,-45.55128 6.8323,-8.14231 z m -180.9557,-151.83984 -6.8318,8.14214 -54.2861,-45.55109 6.8319,-8.14224 z m -180.9553,-151.83995 -6.8325,8.14248 -54.2858,-45.55127 6.8324,-8.14241 z m -180.9555,-151.83963 -6.8326,8.14229 -54.2857,-45.55132 6.832,-8.14214 z"
       id="rect4671-9-60-5"
       sodipodi:nodetypes="cccccccccccccccccccccccccccccccccccccc" />
    <path
       inkscape:connector-curvature="0"
       style="fill:none;stroke:#0000ff;stroke-width:0.7086615;stroke-miterlimit:4;stroke-dasharray:none;stroke-opacity:1"
       d="m 2637.1308,852.00244 -7.838,-7.18231 47.8776,-52.24902 -715.7973,-655.9078 -47.8771,52.24886 -7.8384,-7.18207 -23.937,26.12284 7.8381,7.18217 -35.908,39.1865 715.797,655.90806 35.9079,-39.18692 7.838,7.18247 z m -4.1423,-37.4396 -64.6336,70.53507 -689.6729,-631.96887 64.634,-70.5355 z m -38.3225,-73.56295 -7.1806,7.83634 -52.2472,-47.87591 7.1808,-7.83646 z m -174.1605,-159.58853 -7.1804,7.83643 -52.2474,-47.87571 7.1804,-7.83649 z m -174.1599,-159.58859 -7.1811,7.83673 -52.2471,-47.87591 7.181,-7.83661 z m -174.1602,-159.58824 -7.1811,7.83644 -52.247,-47.87589 7.1805,-7.83631 z"
       id="rect4671-9-60-1-8"
       sodipodi:nodetypes="cccccccccccccccccccccccccccccccccccccc" />
    <path
       style="fill:none;stroke:#0000ff;stroke-width:0.7086615;stroke-miterlimit:4;stroke-dasharray:none;stroke-opacity:1"
       d="m 1098.7797,-606.26062 10.6309,-10e-5 0,42.51941 74.4103,0 -10e-5,10.6309 70.8653,0 0,-10.6308 165.3555,0 10e-5,10.6308 70.8652,-10e-5 0,-10.6307 165.3555,10e-5 -10e-5,10.6308 70.8653,-10e-5 0,-10.6308 165.3556,0 0,10.6308 70.8652,2e-4 0,-10.631 74.4083,-10e-5 -10e-5,-42.51941 10.6309,-10e-5 0,-35.4335 -10.6309,2e-4 0,-53.1487 -928.346,10e-5 0,53.1483 -10.6309,0 z m 28.3476,24.8027 10e-5,-95.6681 892.9125,0 -10e-5,95.668 z"
       id="rect4671-9-6-9"
       inkscape:connector-curvature="0"
       sodipodi:nodetypes="cccccccccccccccccccccccccccccccccc" />
    <path
       style="fill:none;stroke:#0000ff;stroke-width:0.7086615;stroke-miterlimit:4;stroke-dasharray:none;stroke-opacity:1"
       d="m 1560.2617,-113.74073 a 24.803112,24.803112 0 0 0 -24.8034,24.803497 24.803112,24.803112 0 0 0 24.8034,24.8034 24.803112,24.803112 0 0 0 24.8017,-24.8034 24.803112,24.803112 0 0 0 -24.8017,-24.803497 z m 0,10.6293 a 14.173231,14.173231 0 0 1 14.1724,14.174197 14.173231,14.173231 0 0 1 -14.1724,14.1723 14.173231,14.173231 0 0 1 -14.1741,-14.1723 14.173231,14.173231 0 0 1 14.1741,-14.174197 z"
       id="path4553-2-5"
       inkscape:connector-curvature="0" />
    <path
       style="fill:none;stroke:#0000ff;stroke-width:0.7086615;stroke-miterlimit:4;stroke-dasharray:none;stroke-opacity:1"
       d="m 1492.5122,-113.74073 a 24.80311,24.80311 0 0 0 -24.8035,24.803397 24.80311,24.80311 0 0 0 24.8035,24.8035 24.80311,24.80311 0 0 0 24.8035,-24.8035 24.80311,24.80311 0 0 0 -24.8035,-24.803397 z m 0,10.6292 a 14.173231,14.173231 0 0 1 14.1742,14.174197 14.173231,14.173231 0 0 1 -14.1742,14.1724 14.173231,14.173231 0 0 1 -14.1724,-14.1724 14.173231,14.173231 0 0 1 14.1724,-14.174197 z"
       id="path4553-4-0-6"
       inkscape:connector-curvature="0" />
    <path
       style="fill:none;stroke:#0000ff;stroke-width:0.7086615;stroke-miterlimit:4;stroke-dasharray:none;stroke-opacity:1"
       d="m 1424.7644,-113.74073 a 24.803112,24.803112 0 0 0 -24.8034,24.803497 24.803112,24.803112 0 0 0 24.8034,24.8035 24.803112,24.803112 0 0 0 24.8017,-24.8035 24.803112,24.803112 0 0 0 -24.8017,-24.803497 z m 0,10.6293 a 14.173231,14.173231 0 0 1 14.1724,14.174197 14.173231,14.173231 0 0 1 -14.1724,14.1724 14.173231,14.173231 0 0 1 -14.1741,-14.1724 14.173231,14.173231 0 0 1 14.1741,-14.174197 z"
       id="path4553-2-7-5"
       inkscape:connector-curvature="0" />
    <path
       style="fill:none;stroke:#0000ff;stroke-width:0.7086615;stroke-miterlimit:4;stroke-dasharray:none;stroke-opacity:1"
       d="m 1628.0102,-113.74073 a 24.803112,24.803112 0 0 0 -24.8034,24.803497 24.803112,24.803112 0 0 0 24.8034,24.8034 24.803112,24.803112 0 0 0 24.8018,-24.8034 24.803112,24.803112 0 0 0 -24.8018,-24.803497 z m 0,10.6293 a 14.173231,14.173231 0 0 1 14.1725,14.174197 14.173231,14.173231 0 0 1 -14.1725,14.1723 14.173231,14.173231 0 0 1 -14.1741,-14.1723 14.173231,14.173231 0 0 1 14.1741,-14.174197 z"
       id="path4553-2-2-8"
       inkscape:connector-curvature="0" />
  </g>
</svg>
