<?xml version="1.0" encoding="UTF-8" standalone="no"?>
<!-- Created with Inkscape (http://www.inkscape.org/) -->

<svg
   xmlns:dc="http://purl.org/dc/elements/1.1/"
   xmlns:cc="http://creativecommons.org/ns#"
   xmlns:rdf="http://www.w3.org/1999/02/22-rdf-syntax-ns#"
   xmlns:svg="http://www.w3.org/2000/svg"
   xmlns="http://www.w3.org/2000/svg"
   xmlns:sodipodi="http://sodipodi.sourceforge.net/DTD/sodipodi-0.dtd"
   xmlns:inkscape="http://www.inkscape.org/namespaces/inkscape"
   width="200mm"
   height="250mm"
   viewBox="0 0 708.66141 885.82675"
   id="svg2"
   version="1.1"
   inkscape:version="0.91 r13725"
   sodipodi:docname="tube-rack.svg">
  <defs
     id="defs4" />
  <sodipodi:namedview
     id="base"
     pagecolor="#ffffff"
     bordercolor="#666666"
     borderopacity="1.0"
     inkscape:pageopacity="0.0"
     inkscape:pageshadow="2"
     inkscape:zoom="0.7"
     inkscape:cx="556.1101"
     inkscape:cy="526.49924"
     inkscape:document-units="px"
     inkscape:current-layer="layer1"
     showgrid="false"
     inkscape:window-width="1858"
     inkscape:window-height="1177"
     inkscape:window-x="-8"
     inkscape:window-y="-8"
     inkscape:window-maximized="1" />
  <metadata
     id="metadata7">
    <rdf:RDF>
      <cc:Work
         rdf:about="">
        <dc:format>image/svg+xml</dc:format>
        <dc:type
           rdf:resource="http://purl.org/dc/dcmitype/StillImage" />
        <dc:title></dc:title>
      </cc:Work>
    </rdf:RDF>
  </metadata>
  <g
     inkscape:label="Layer 1"
     inkscape:groupmode="layer"
     id="layer1"
     transform="translate(0,-166.53548)">
    <path
       style="fill:none;stroke:#000000;stroke-width:0.35433063;stroke-miterlimit:4;stroke-dasharray:none;stroke-opacity:1"
       d="m 17.898101,910.63065 0,0 c 4e-4,68.3943 55.5333,123.83865 123.927699,123.83795 68.3936,-3e-4 124.1031,-55.44425 124.1035,-123.83795 l -0.01,-0.1777 0.01,0 0,-28.3457 -26.2207,0 0,-10.6309 26.2207,0 0,-524.4082 -26.2207,0 0,-10.6308 26.2207,0 0,-28.4356 -0.01,0 c -0.099,-68.3219 -55.7796,-123.6566 -124.1016,-123.6601 -68.321099,0 -123.731599,55.339 -123.829999,123.6601 l -0.094,0 0,28.4356 26.2227,0 0,10.6308 -26.2227,0 0,524.4102 26.2187,0 0,10.6308 -26.2187,0 0,28.1543 0,0.1914 0,0.1758 z m 19.1368,-88.582 c 0,-18.7863 15.2293,-34.0156 34.0156,-34.0156 18.7863,10e-5 34.015499,15.2293 34.015599,34.0156 -1e-4,18.7863 -15.229399,34.0156 -34.015599,34.0156 -18.7863,0 -34.0156,-15.2293 -34.0156,-34.0156 z m 0,-106.29881 c 0,-18.7863 15.2293,-34.0157 34.0156,-34.0157 18.7863,0 34.015499,15.2294 34.015599,34.0157 -1e-4,18.7863 -15.229399,34.0155 -34.015599,34.0156 -18.7863,0 -34.0156,-15.2293 -34.0156,-34.0156 z m 0,-106.2989 c 0,-18.7863 15.2293,-34.0155 34.0156,-34.0156 18.7862,10e-5 34.015499,15.2293 34.015599,34.0156 -1e-4,18.7863 -15.229299,34.0156 -34.015599,34.0157 -18.7863,-10e-5 -34.0156,-15.2294 -34.0156,-34.0157 z m 0,-106.30069 c 0,-18.7863 15.2293,-34.0157 34.0156,-34.0157 18.7863,0 34.015499,15.2294 34.015599,34.0157 -1e-4,18.7863 -15.229399,34.0155 -34.015599,34.0156 -18.7863,-10e-5 -34.0156,-15.2293 -34.0156,-34.0156 z m 0,-106.2989 c 0,-18.7862 15.2293,-34.0155 34.0156,-34.0156 18.7863,10e-5 34.015499,15.2294 34.015599,34.0156 -1e-4,18.7863 -15.229399,34.0155 -34.015599,34.0157 -18.7863,-2e-4 -34.0156,-15.2294 -34.0156,-34.0157 z m 18.541,531.7539 c -0.1609,-9.6051 7.5901,-17.9726 17.7246,-17.9726 0,0 44.993399,17.7168 68.615199,17.7168 23.6218,0 68.6152,-17.7168 68.6152,-17.7168 11.2145,-2.8955 20.0499,10.9301 17.1543,22.1445 -10.0984,39.1109 -45.376,66.4375 -85.7695,66.4375 -40.3935,0 -75.671099,-27.3266 -85.769499,-66.4375 -0.3619,-1.4018 -0.5474,-2.7998 -0.5703,-4.1719 z m 0,-638.4004 c 0.021,-1.3722 0.2083,-2.77 0.5703,-4.1718 10.0984,-39.1108 45.375999,-66.4375 85.769499,-66.4375 40.3935,0 75.6711,27.3267 85.7695,66.4375 2.8956,11.2145 -5.5721,22.1465 -17.1543,22.1464 0,0 -44.9935,-17.7148 -68.6152,-17.7148 -23.6217,0 -68.615199,17.7148 -68.615199,17.7148 -9.8127,2.5334 -17.8854,-8.3695 -17.7246,-17.9746 z m 52.324199,478.6934 c 1e-4,-18.78631 15.2293,-34.01551 34.0156,-34.01561 18.7863,10e-5 34.0155,15.2293 34.0156,34.01561 -1e-4,18.7863 -15.2293,34.0156 -34.0156,34.0156 -18.7863,0 -34.0155,-15.2293 -34.0156,-34.0156 z m 0,-106.29881 c 1e-4,-18.7863 15.2293,-34.0157 34.0156,-34.0157 18.7863,0 34.0155,15.2294 34.0156,34.0157 -1e-4,18.7863 -15.2293,34.0156 -34.0156,34.0156 -18.7863,0 -34.0155,-15.2293 -34.0156,-34.0156 z m 0,-106.29889 c 1e-4,-18.7863 15.2293,-34.0155 34.0156,-34.0156 18.7863,10e-5 34.0155,15.2293 34.0156,34.0156 -1e-4,18.78629 -15.2293,34.01559 -34.0156,34.01569 -18.7863,-10e-5 -34.0155,-15.2294 -34.0156,-34.01569 z m 0,-106.2988 c 1e-4,-18.7863 15.2293,-34.0155 34.0156,-34.0156 18.7863,10e-5 34.0155,15.2293 34.0156,34.0156 -1e-4,18.7863 -15.2293,34.0155 -34.0156,34.0156 -18.7863,-1e-4 -34.0155,-15.2293 -34.0156,-34.0156 z m 0.1758,425.1973 a 33.838581,33.838581 0 0 1 33.8378,-33.8379 33.838581,33.838581 0 0 1 33.8399,33.8379 33.838581,33.838581 0 0 1 -33.8399,33.8379 33.838581,33.838581 0 0 1 -33.8378,-33.8379 z m 0,-531.4961 a 33.838581,33.838581 0 0 1 33.8378,-33.8379 33.838581,33.838581 0 0 1 33.8399,33.8379 33.838581,33.838581 0 0 1 -33.8399,33.8379 33.838581,33.838581 0 0 1 -33.8378,-33.8379 z m 70.6894,478.3457 c 1e-4,-18.787 15.2305,-34.0166 34.0176,-34.0156 18.7863,10e-5 34.0155,15.2293 34.0156,34.0156 -1e-4,18.7863 -15.2294,34.0156 -34.0156,34.0156 -18.7871,0 -34.0175,-15.2285 -34.0176,-34.0156 z m 0,-106.29881 c 1e-4,-18.7871 15.2305,-34.0168 34.0176,-34.0157 18.7863,0 34.0155,15.2294 34.0156,34.0157 -1e-4,18.7863 -15.2294,34.0155 -34.0156,34.0156 -18.7871,0 -34.0175,-15.2286 -34.0176,-34.0156 z m 0,-106.2989 c 1e-4,-18.7871 15.2305,-34.0166 34.0176,-34.0156 18.7862,10e-5 34.0155,15.2293 34.0156,34.0156 -1e-4,18.7863 -15.2293,34.0156 -34.0156,34.0157 -18.7871,0 -34.0175,-15.2287 -34.0176,-34.0157 z m 0,-106.30069 c 1e-4,-18.7871 15.2305,-34.0168 34.0176,-34.0157 18.7863,0 34.0155,15.2294 34.0156,34.0157 -1e-4,18.7863 -15.2294,34.0155 -34.0156,34.0156 -18.7871,0 -34.0175,-15.2286 -34.0176,-34.0156 z m 0,-106.2989 c 1e-4,-18.787 15.2305,-34.0166 34.0176,-34.0156 18.7863,10e-5 34.0155,15.2294 34.0156,34.0156 -1e-4,18.7863 -15.2294,34.0156 -34.0156,34.0157 -18.7871,0 -34.0175,-15.2286 -34.0176,-34.0157 z"
       id="circle89"
       inkscape:connector-curvature="0" />
    <path
       style="fill:none;stroke:#000000;stroke-width:0.35433063;stroke-miterlimit:4;stroke-dasharray:none;stroke-opacity:1"
       d="m 283.64173,1016.7518 c 0,9.8149 7.9018,17.7168 17.7168,17.7168 l 212.5976,0 c 9.815,0 17.7168,-7.9019 17.7168,-17.7168 l 0,-10.8066 -26.2207,0 0,-10.63093 26.2207,0 0,-524.40818 -26.2207,0 0,-10.6308 26.2207,0 0,-10.4532 c 0,-9.8149 -7.9018,-17.7168 -17.7168,-17.7167 l -212.5976,0 c -9.815,0 -17.7168,7.9018 -17.7168,17.7167 l 0,10.4532 26.2207,0 0,10.6308 -26.2207,0 0,524.40818 26.2207,0 0,10.63093 -26.2207,0 0,10.8066 z m 35.4336,-70.86723 c -2e-4,-9.7848 7.932,-17.7168 17.7168,-17.7168 9.7847,-10e-5 17.7169,7.932 17.7168,17.7168 10e-5,9.7848 -7.9321,17.717 -17.7168,17.7168 -9.7848,2e-4 -17.717,-7.932 -17.7168,-17.7168 z m 0,-106.2988 c -2e-4,-9.7848 7.932,-17.7169 17.7168,-17.7168 9.7847,-10e-5 17.7169,7.932 17.7168,17.7168 10e-5,9.7848 -7.9321,17.7169 -17.7168,17.7168 -9.7848,1e-4 -17.717,-7.932 -17.7168,-17.7168 z m 0,-106.2988 c -2e-4,-9.7848 7.932,-17.7189 17.7168,-17.7188 9.7847,-10e-5 17.7169,7.934 17.7168,17.7188 10e-5,9.7847 -7.932,17.715 -17.7168,17.7148 -9.7848,2e-4 -17.717,-7.9301 -17.7168,-17.7148 z m 0,-106.2988 c -2e-4,-9.7847 7.932,-17.7169 17.7168,-17.7168 9.7848,-1e-4 17.7169,7.9321 17.7168,17.7168 10e-5,9.7848 -7.9321,17.717 -17.7168,17.7168 -9.7848,2e-4 -17.717,-7.932 -17.7168,-17.7168 z m 0,-106.29888 c -2e-4,-9.7848 7.932,-17.7169 17.7168,-17.7168 9.7847,-10e-5 17.7169,7.932 17.7168,17.7168 0,9.78398 -7.9328,17.71498 -17.7168,17.71488 -9.7841,10e-5 -17.7159,-7.9309 -17.7168,-17.71488 z m 70.8672,372.04688 c -2e-4,-9.7848 7.932,-17.717 17.7168,-17.7168 9.7847,-2e-4 17.7169,7.932 17.7167,17.7168 2e-4,9.7848 -7.932,17.7169 -17.7167,17.7168 -9.7848,10e-5 -17.717,-7.932 -17.7168,-17.7168 z m 0,-106.3008 c -2e-4,-9.7847 7.932,-17.715 17.7168,-17.7148 9.7847,-2e-4 17.7169,7.9301 17.7167,17.7148 -9e-4,9.7841 -7.9327,17.717 -17.7167,17.7168 -9.784,2e-4 -17.7159,-7.9327 -17.7168,-17.7168 z m 0,-106.2988 c -2e-4,-9.7848 7.932,-17.717 17.7168,-17.7168 9.7847,-2e-4 17.7169,7.932 17.7167,17.7168 2e-4,9.7847 -7.932,17.7169 -17.7167,17.7168 -9.7848,10e-5 -17.717,-7.9321 -17.7168,-17.7168 z m 0,-106.2988 c -2e-4,-9.7847 7.932,-17.7169 17.7168,-17.7168 9.7847,-1e-4 17.7169,7.9321 17.7167,17.7168 2e-4,9.7848 -7.932,17.717 -17.7167,17.7168 -9.7848,2e-4 -17.717,-7.932 -17.7168,-17.7168 z m 0.1777,425.1972 a 17.53937,17.53937 0 0 1 17.5391,-17.539 17.53937,17.53937 0 0 1 17.539,17.539 17.53937,17.53937 0 0 1 -17.539,17.53913 17.53937,17.53937 0 0 1 -17.5391,-17.53913 z m 0,-531.49608 a 17.53937,17.53937 0 0 1 17.5391,-17.539 17.53937,17.53937 0 0 1 17.539,17.539 17.53937,17.53937 0 0 1 -17.539,17.5391 17.53937,17.53937 0 0 1 -17.5391,-17.5391 z m 70.6875,478.34568 c -2e-4,-9.7848 7.932,-17.7168 17.7168,-17.7168 9.7848,-10e-5 17.7169,7.932 17.7168,17.7168 10e-5,9.7848 -7.932,17.717 -17.7168,17.7168 -9.7848,2e-4 -17.717,-7.932 -17.7168,-17.7168 z m 0,-106.2988 c -2e-4,-9.7848 7.932,-17.7169 17.7168,-17.7168 9.7848,-10e-5 17.7169,7.932 17.7168,17.7168 10e-5,9.7848 -7.932,17.7169 -17.7168,17.7168 -9.7848,1e-4 -17.717,-7.932 -17.7168,-17.7168 z m 0,-106.2988 c -10e-5,-9.7848 7.932,-17.7189 17.7168,-17.7188 9.7847,-10e-5 17.7169,7.934 17.7168,17.7188 10e-5,9.7847 -7.932,17.715 -17.7168,17.7148 -9.7848,2e-4 -17.717,-7.9301 -17.7168,-17.7148 z m 0,-106.2988 c -2e-4,-9.7847 7.932,-17.7169 17.7168,-17.7168 9.7848,-1e-4 17.7169,7.9321 17.7168,17.7168 10e-5,9.7848 -7.9321,17.717 -17.7168,17.7168 -9.7848,2e-4 -17.717,-7.932 -17.7168,-17.7168 z m 0,-106.29888 c -10e-5,-9.7848 7.932,-17.7169 17.7168,-17.7168 9.7847,-10e-5 17.7169,7.932 17.7168,17.7168 -9e-4,9.78398 -7.9328,17.71498 -17.7168,17.71488 -9.784,10e-5 -17.7159,-7.9309 -17.7168,-17.71488 z"
       id="circle69"
       inkscape:connector-curvature="0" />
    <path
       style="opacity:1;fill:none;fill-opacity:1;stroke:#000000;stroke-width:0.35433063;stroke-miterlimit:4;stroke-dasharray:none;stroke-opacity:1"
       d="m 584.82336,1034.4686 c 9.815,0 17.7168,-7.9018 17.7168,-17.7168 l 0,-380.72845 c 0,-9.815 -7.9018,-17.7168 -17.7168,-17.7168 l -17.7168,0 c -9.8149,0 -17.7168,7.9018 -17.7168,17.7168 l 0,53.1484 26.5742,0 0,10.2754 -26.5742,0 0,283.8203 26.5742,0 0,10.2753 -26.5742,0 0,23.20905 c 0,9.815 7.9019,17.7168 17.7168,17.7168 l 17.7168,0 z m -10.4512,-12.5781 a 6.909449,6.9094483 0 0 1 -6.9101,-6.9102 6.909449,6.9094483 0 0 1 6.9101,-6.9101 6.909449,6.9094483 0 0 1 6.9082,6.9101 6.909449,6.9094483 0 0 1 -6.9082,6.9102 z"
       id="rect4220-4"
       inkscape:connector-curvature="0" />
    <path
       inkscape:connector-curvature="0"
       style="opacity:1;fill:none;fill-opacity:1;stroke:#000000;stroke-width:0.35433063;stroke-miterlimit:4;stroke-dasharray:none;stroke-opacity:1"
       d="m 283.64173,396.67311 c 0,9.8149 7.9019,17.7167 17.7168,17.7167 l 380.72849,0 c 9.8149,0 17.7168,-7.9018 17.7168,-17.7167 l 0,-17.7169 c 0,-9.8149 -7.9019,-17.7167 -17.7168,-17.7167 l -53.1484,0 0,26.5742 -10.2754,0 0,-26.5742 -283.82029,0 0,26.5742 -10.2754,0 0,-26.5742 -23.209,0 c -9.8149,0 -17.7168,7.9018 -17.7168,17.7167 l 0,17.7169 z m 12.5781,-10.4512 a 6.9094483,6.909449 0 0 1 6.9102,-6.9102 6.9094483,6.909449 0 0 1 6.9102,6.9102 6.9094483,6.909449 0 0 1 -6.9102,6.9082 6.9094483,6.909449 0 0 1 -6.9102,-6.9082 z"
       id="rect4220-4-5" />
    <path
       inkscape:connector-curvature="0"
       style="opacity:1;fill:none;fill-opacity:1;stroke:#000000;stroke-width:0.35433063;stroke-miterlimit:4;stroke-dasharray:none;stroke-opacity:1"
       d="m 656.57596,1033.5261 c 9.8149,0 17.7168,-7.9019 17.7168,-17.7168 l 0,-380.72855 c 0,-9.815 -7.9019,-17.7168 -17.7168,-17.7168 l -17.7168,0 c -9.815,0 -17.7168,7.9018 -17.7168,17.7168 l 0,53.1484 26.5742,0 0,10.2754 -26.5742,0 0,283.8203 26.5742,0 0,10.2754 -26.5742,0 0,23.20905 c 0,9.8149 7.9018,17.7168 17.7168,17.7168 l 17.7168,0 z m -10.4512,-12.5781 a 6.9094486,6.9094486 0 0 1 -6.9101,-6.9102 6.9094486,6.9094486 0 0 1 6.9101,-6.9102 6.9094486,6.9094486 0 0 1 6.9082,6.9102 6.9094486,6.9094486 0 0 1 -6.9082,6.9102 z"
       id="rect4220-4-7" />
    <path
       inkscape:connector-curvature="0"
       style="opacity:1;fill:none;fill-opacity:1;stroke:#000000;stroke-width:0.35433063;stroke-miterlimit:4;stroke-dasharray:none;stroke-opacity:1"
       d="m 283.64173,325.80687 c 0,9.815 7.9018,17.7168 17.7168,17.7168 l 380.7284,0 c 9.815,0 17.7168,-7.9018 17.7168,-17.7168 l 0,-17.7168 c 0,-9.8149 -7.9018,-17.7168 -17.7168,-17.7168 l -53.1484,0 0,26.5742 -10.2754,0 0,-26.5742 -283.8203,0 0,26.5742 -10.2754,0 0,-26.5742 -23.2089,0 c -9.815,0 -17.7168,7.9019 -17.7168,17.7168 l 0,17.7168 z m 12.5781,-10.4512 a 6.9094483,6.909449 0 0 1 6.9101,-6.9101 6.9094483,6.909449 0 0 1 6.9102,6.9101 6.9094483,6.909449 0 0 1 -6.9102,6.9082 6.9094483,6.909449 0 0 1 -6.9101,-6.9082 z"
       id="rect4220-4-53" />
  </g>
</svg>
